<svg width="184" height="156" viewBox="0 0 184 156" fill="none" xmlns="http://www.w3.org/2000/svg">
<g id="02" clip-path="url(#clip0_20_17726)">
<path id="Vector" d="M164.507 105.645C164.554 104.592 164.528 103.539 164.419 102.488C162.621 85.163 139.078 87.9698 135.701 102.423C133.051 113.764 133.453 121.538 122.799 120.989C118.24 120.754 115.936 118.445 114.771 116.195C113.42 113.586 113.4 110.5 114.517 107.782C118.341 98.4819 132.655 86.6533 135.15 63.8308C137.565 41.7374 121.408 22.8069 98.5181 19.9796C75.628 17.1523 55.9332 28.0103 51.6145 52.7802C50.4532 59.4405 51.2541 66.1785 52.2914 72.5713C52.2914 72.5713 51.3056 83.6475 43.8357 90.4987C34.9246 98.6718 22.4016 85.5974 30.8242 76.9215C33.9918 73.6584 37.2156 70.4418 38.9878 66.7529C41.3573 61.8201 39.8692 56.4796 35.5696 53.1615C31.6634 50.147 26.1278 49.7597 21.9204 52.3963C20.8839 53.0456 20.1744 53.9881 21.4594 54.8628C22.6001 55.6395 23.9899 56.0937 25.1773 56.8096C26.9806 57.8961 28.2698 59.6438 27.6047 61.8441C26.8452 64.3575 24.2972 65.9841 22.4136 67.6214C20.3097 69.4504 18.2586 71.3428 16.3693 73.3951C12.5966 77.4933 9.53225 82.3526 8.38065 87.8624C7.2884 93.0881 7.79495 98.8025 10.2909 103.567C15.4914 113.494 28.9848 117.221 38.7989 112.057C38.7989 112.057 49.2849 125.44 63.544 116.579C63.544 116.579 71.5206 138.297 95.0206 127.273C95.0206 127.273 97.0879 144.095 122.07 144.976C142.4 145.694 148.186 126.278 148.99 118.468C149.794 110.658 151.418 103.117 156.286 102.885C159.427 102.736 160.686 104.764 161.183 106.221C161.472 107.069 162.378 107.55 163.257 107.305C163.99 107.1 164.472 106.405 164.506 105.645L164.507 105.645Z" fill="#066AFF"/>
<path id="Vector_2" d="M77.0124 79.6152C74.6662 78.9865 72.845 77.0155 72.2824 74.4259C72.1479 73.8059 72.541 73.1946 73.1609 73.0602C73.7816 72.9248 74.3922 73.3187 74.5272 73.9388C74.938 75.8304 76.3112 77.2255 78.0267 77.4843C79.7554 77.7487 81.4886 76.8192 82.4427 75.1165C82.7527 74.5627 83.4523 74.3661 84.0063 74.6756C84.5595 74.986 84.7571 75.6858 84.4467 76.2389C83.0199 78.7855 80.3638 80.1654 77.6795 79.7551C77.4533 79.7202 77.2302 79.6736 77.0119 79.6151L77.0124 79.6152Z" fill="#160872"/>
<g id="Group">
<path id="Vector_3" d="M92.0201 74.9196C95.0551 75.2284 97.8823 71.8729 98.3348 67.4248C98.7874 62.9768 96.6939 59.1205 93.6589 58.8117C90.6239 58.5028 87.7967 61.8583 87.3442 66.3064C86.8916 70.7545 88.9851 74.6107 92.0201 74.9196Z" fill="#160872"/>
<path id="Vector_4" d="M90.9882 67.8348C91.8819 67.9616 92.7544 67.0196 92.9372 65.7308C93.1199 64.4421 92.5435 63.2946 91.6499 63.1679C90.7562 63.0412 89.8836 63.9832 89.7009 65.2719C89.5182 66.5607 90.0945 67.7081 90.9882 67.8348Z" fill="white"/>
</g>
<g id="Group_2">
<path id="Vector_5" d="M73.8277 63.6477C75.1357 59.3722 73.8311 55.1828 70.9139 54.2904C67.9967 53.398 64.5715 56.1404 63.2635 60.4159C61.9556 64.6913 63.2601 68.8807 66.1774 69.7731C69.0946 70.6656 72.5198 67.9231 73.8277 63.6477Z" fill="#160872"/>
<path id="Vector_6" d="M69.8721 63.6433C70.7449 63.8731 71.7212 63.039 72.0526 61.7803C72.384 60.5215 71.945 59.3149 71.0722 59.085C70.1993 58.8552 69.223 59.6893 68.8917 60.9481C68.5603 62.2068 68.9992 63.4135 69.8721 63.6433Z" fill="white"/>
</g>
<g id="Group_3">
<path id="Vector_7" d="M122.465 60.266C125.002 59.2967 126.118 56.0493 124.958 53.0128C123.798 49.9763 120.8 48.3005 118.263 49.2698C115.726 50.2391 114.609 53.4865 115.77 56.523C116.93 59.5595 119.927 61.2353 122.465 60.266Z" fill="#0F47BE"/>
<path id="Vector_8" d="M102.788 97.8513C101.627 94.8145 98.6296 93.139 96.0924 94.1085C95.9474 94.1641 95.8082 94.2291 95.6726 94.2987C96.7152 95.0539 97.6467 95.9792 98.4851 97.1087C100.175 99.3878 100.645 102.3 100.385 105.064C102.857 104.051 103.934 100.85 102.788 97.8513Z" fill="#0F47BE"/>
<path id="Vector_9" d="M125.008 49.2395C125.79 48.9407 126.134 47.9399 125.776 47.0039C125.419 46.068 124.495 45.5515 123.713 45.8502C122.931 46.1489 122.587 47.1498 122.944 48.0858C123.302 49.0217 124.226 49.5382 125.008 49.2395Z" fill="#0F47BE"/>
<path id="Vector_10" d="M126.832 64.1159C127.614 63.8172 127.958 62.8163 127.601 61.8804C127.243 60.9445 126.319 60.4279 125.537 60.7267C124.755 61.0254 124.411 62.0263 124.769 62.9622C125.126 63.8981 126.05 64.4147 126.832 64.1159Z" fill="#0F47BE"/>
<path id="Vector_11" d="M107.213 107.953C107.995 107.654 108.339 106.653 107.982 105.717C107.624 104.781 106.7 104.265 105.918 104.563C105.136 104.862 104.792 105.863 105.15 106.799C105.507 107.735 106.431 108.251 107.213 107.953Z" fill="#0F47BE"/>
<path id="Vector_12" d="M66.0374 38.6359C67.7936 37.622 68.5306 35.6106 67.6834 34.1433C66.8361 32.676 64.7256 32.3085 62.9693 33.3224C61.213 34.3363 60.4761 36.3477 61.3233 37.815C62.1705 39.2823 64.2811 39.6498 66.0374 38.6359Z" fill="#0F47BE"/>
<path id="Vector_13" d="M67.8099 44.415C68.872 43.8019 69.3177 42.5855 68.8054 41.6982C68.293 40.8109 67.0167 40.5886 65.9546 41.2018C64.8925 41.815 64.4468 43.0313 64.9592 43.9186C65.4715 44.8059 66.7478 45.0282 67.8099 44.415Z" fill="#0F47BE"/>
<path id="Vector_14" d="M119.169 46.7952C120.413 46.3196 120.961 44.7266 120.392 43.2369C119.823 41.7473 118.352 40.9252 117.107 41.4007C115.863 41.8762 115.315 43.4693 115.884 44.9589C116.453 46.4486 117.924 47.2707 119.169 46.7952Z" fill="#0F47BE"/>
<path id="Vector_15" d="M73.4681 36.5365C74.4198 36.1048 74.8989 35.1102 74.5381 34.315C74.1774 33.5199 73.1134 33.2252 72.1617 33.6569C71.21 34.0885 70.7309 35.0831 71.0917 35.8783C71.4524 36.6735 72.5164 36.9681 73.4681 36.5365Z" fill="#0F47BE"/>
</g>
<g id="Group_4">
<g id="Group_5" opacity="0.22">
<path id="Vector_16" d="M134.26 109.271C135.228 106.769 135.791 103.568 136.552 99.8724C136.198 100.677 135.911 101.527 135.702 102.423C135.125 104.891 134.693 107.19 134.26 109.271Z" fill="#160872"/>
</g>
<g id="Group_6" opacity="0.22">
<path id="Vector_17" d="M123.648 139.087C98.6662 138.205 96.5987 121.383 96.5987 121.383C73.0985 132.407 65.1222 110.689 65.1222 110.689C53.3616 108.231 40.3771 106.168 40.3771 106.168C30.5635 111.332 17.0695 107.604 11.8691 97.6782C9.63645 93.4167 8.99998 88.3967 9.67085 83.6451C9.12397 85.0048 8.68437 86.4104 8.38093 87.862C7.28869 93.0877 7.79524 98.802 10.2912 103.567C15.4917 113.493 28.9851 117.22 38.7992 112.057C38.7992 112.057 49.2852 125.44 63.5443 116.578C63.5443 116.578 71.5209 138.296 95.0208 127.272C95.0208 127.272 97.0882 144.094 122.07 144.976C140.621 145.631 147.061 129.523 148.657 120.765C145.608 129.363 138.52 139.612 123.648 139.087Z" fill="#160872"/>
</g>
</g>
<g id="Group_7" opacity="0.6">
<path id="Vector_18" d="M114.771 116.195C113.963 114.635 113.635 112.906 113.737 111.185C113.618 111.444 113.504 111.7 113.4 111.954C112.282 114.672 112.303 117.757 113.654 120.367C114.818 122.617 117.123 124.926 121.682 125.16C129.599 125.568 131.411 121.379 132.907 114.546C131.411 118.853 128.944 121.305 122.8 120.988C118.24 120.753 115.936 118.445 114.772 116.195L114.771 116.195Z" fill="white"/>
<path id="Vector_19" d="M135.231 104.534C140.242 91.9147 161.592 90.1938 163.301 106.661C163.322 106.864 163.337 107.066 163.352 107.269C164.03 107.033 164.474 106.371 164.507 105.645C164.554 104.593 164.528 103.539 164.419 102.488C162.621 85.1626 139.078 87.9699 135.702 102.423C135.534 103.142 135.378 103.846 135.231 104.535L135.231 104.534Z" fill="white"/>
<path id="Vector_20" d="M28.04 83.3136C23.3262 91.7798 34.5411 102.17 42.7177 94.6707C47.9951 89.8304 50.0344 82.8855 50.7779 79.2236C49.5824 82.8021 47.4833 87.1531 43.8357 90.4985C36.9807 96.7857 27.9903 90.4989 28.04 83.3136Z" fill="white"/>
<path id="Vector_21" d="M135.15 63.8308C137.565 41.7373 121.408 22.8068 98.518 19.9794C76.3536 17.2416 57.1853 27.3353 52.0718 50.4663C57.3627 33.7883 70.6905 24.9431 86.8996 23.8336C86.8164 24.0363 86.7555 24.2461 86.7234 24.4636C86.3075 27.3298 90.6612 30.3346 96.4479 31.1748C102.235 32.0151 107.263 30.3728 107.68 27.5067C107.722 27.2158 107.713 26.9237 107.66 26.6328C124.915 33.0158 136.067 49.3861 134.032 68.0025C133.772 70.3842 133.381 72.6444 132.889 74.7962C133.923 71.4439 134.716 67.8043 135.15 63.8298L135.15 63.8308Z" fill="white"/>
<path id="Vector_22" d="M149.865 112.366C148.834 115.211 148.258 118.893 147.872 122.64C147.778 123.551 147.615 124.621 147.371 125.798C148.299 122.971 148.794 120.373 148.99 118.467C149.206 116.368 149.483 114.289 149.865 112.366Z" fill="white"/>
<path id="Vector_23" d="M21.4589 54.862C21.8653 55.1388 22.3039 55.3738 22.7531 55.5949C26.6168 54.1058 31.1251 54.7656 34.4517 57.333C37.5605 59.7325 39.1982 63.1889 38.9721 66.7837C38.9771 66.773 38.9829 66.763 38.9879 66.7523C41.3573 61.8195 39.8692 56.479 35.5696 53.1609C31.6636 50.1459 26.1278 49.759 21.9204 52.3957C20.8839 53.045 20.1744 53.9875 21.4596 54.8617L21.4589 54.862Z" fill="white"/>
</g>
<path id="Vector_24" d="M23.0267 114.57C22.7173 114.487 22.4097 114.397 22.1021 114.302C16.4221 112.533 11.8798 108.86 9.31188 103.958C6.79496 99.1537 6.07878 93.3034 7.29469 87.4851C8.37627 82.309 11.158 77.2591 15.5625 72.475C17.2255 70.6685 19.1753 68.8056 21.6983 66.6125C22.071 66.2885 22.4716 65.9625 22.8587 65.6476C24.4178 64.3793 26.03 63.0675 26.5431 61.3699C27.0843 59.5792 25.7974 58.3593 24.6225 57.6515C24.1419 57.3617 23.6118 57.1137 23.051 56.8512C22.3164 56.5069 21.5561 56.1511 20.8502 55.6702C19.8453 54.986 19.6462 54.2035 19.6561 53.6673C19.6674 53.0555 19.9706 52.1453 21.3477 51.282C25.9321 48.4095 31.9444 48.7426 36.3087 52.1111C41.1642 55.8589 42.6371 61.7457 40.061 67.1088C38.2969 70.781 35.1799 73.9868 32.1649 77.0878C26.9933 82.4065 22.1084 87.4307 23.3686 94.6223C23.4782 95.2471 23.06 95.8422 22.4352 95.9518C21.8104 96.0614 21.2151 95.6437 21.1056 95.0185C19.6427 86.6703 25.1713 80.9846 30.5176 75.486C33.5367 72.3814 36.388 69.4485 37.9897 66.1142C40.0769 61.7689 38.8658 56.9863 34.9045 53.9288C31.2983 51.1458 26.34 50.8638 22.5666 53.2275C22.2685 53.4141 22.0991 53.5723 22.0132 53.6736C22.0447 53.7009 22.0868 53.7337 22.1419 53.771C22.6961 54.1483 23.3412 54.4507 24.0242 54.7701C24.6138 55.0466 25.2235 55.3322 25.8066 55.6836C28.3774 57.2323 29.4747 59.6064 28.7408 62.0338C28.0243 64.4045 26.0491 66.0115 24.307 67.4285C23.9171 67.7458 23.5483 68.0452 23.2035 68.3452C20.7461 70.4813 18.8546 72.2875 17.2507 74.0301C13.131 78.5049 10.5374 83.1897 9.54138 87.9543C8.45018 93.1761 9.1073 98.6202 11.3448 102.891C13.6278 107.248 17.6902 110.522 22.7834 112.108C28.0609 113.75 33.7155 113.31 38.3003 110.897C38.8615 110.602 39.5562 110.817 39.8518 111.379C40.1473 111.94 39.9318 112.635 39.3705 112.93C34.5186 115.483 28.612 116.066 23.0252 114.569L23.0267 114.57Z" fill="#160872"/>
<g id="Group_8">
<path id="Vector_25" d="M84.6293 102.361L64.7649 110.225C63.8005 110.608 62.3368 110.654 61.1761 110.342L28.1683 101.423C27.2503 101.174 26.7404 100.769 26.6764 100.355C26.6734 100.355 26.6753 100.354 26.6767 100.352C26.7174 100.087 26.8542 99.8307 27.1163 99.5988L27.1209 99.5953C27.2466 99.5099 27.4026 99.4289 27.5855 99.3573L47.4519 91.4908C48.4162 91.1087 49.88 91.0618 51.0393 91.3756L84.0489 100.293C84.2569 100.349 84.4428 100.413 84.6083 100.485C85.8187 101.002 85.8936 101.859 84.6309 102.36L84.6293 102.361Z" fill="#365184"/>
<path id="Vector_26" d="M60.8847 111.453L60.8774 111.451L27.8686 102.532C26.1374 102.062 25.6737 101.17 25.5585 100.623C25.5565 100.615 25.5542 100.606 25.5523 100.598C25.5172 100.435 25.5185 100.27 25.5523 100.112C25.648 99.5924 25.9244 99.1188 26.3553 98.7385C26.3772 98.7192 26.3995 98.7005 26.4226 98.6831C26.4376 98.6719 26.4572 98.6577 26.4726 98.6472C26.6703 98.5123 26.9026 98.3915 27.1635 98.2888L47.0281 90.4235C48.2087 89.955 49.933 89.8909 51.3227 90.2632L51.3384 90.2674L84.347 99.185C84.602 99.2533 84.8432 99.3363 85.0622 99.4312C86.5504 100.067 86.6997 101.07 86.6943 101.472C86.6893 101.866 86.5194 102.847 85.0525 103.429L65.1881 111.294C64.0059 111.762 62.2773 111.826 60.8847 111.453ZM28.3628 100.284C28.3968 100.294 28.4319 100.304 28.4691 100.314L61.4759 109.233L61.4808 109.234C62.403 109.481 63.6061 109.45 64.3422 109.158L83.855 101.432C83.821 101.422 83.7869 101.412 83.7512 101.403L50.7396 92.4845L50.7293 92.4817C49.8081 92.2349 48.6101 92.267 47.8752 92.5584L28.3633 100.284L28.3628 100.284Z" fill="#160872"/>
</g>
<g id="Group_9" opacity="0.22">
<path id="Vector_27" d="M84.6293 102.361L64.7649 110.225C63.8005 110.608 62.3368 110.654 61.1761 110.342L28.1683 101.423C27.2503 101.174 26.7404 100.769 26.6764 100.355C26.6734 100.355 26.6753 100.354 26.6767 100.352C26.7174 100.087 26.8542 99.8307 27.1163 99.5988L27.1209 99.5953C27.2466 99.5099 27.4026 99.4289 27.5855 99.3573L47.4519 91.4908C48.4162 91.1087 49.88 91.0618 51.0393 91.3756L84.0489 100.293C84.2569 100.349 84.4428 100.413 84.6083 100.485C85.8187 101.002 85.8936 101.859 84.6309 102.36L84.6293 102.361Z" fill="#160872"/>
</g>
<g id="Group_10" opacity="0.22">
<path id="Vector_28" d="M84.6293 102.361L64.7649 110.225C63.8005 110.608 62.3368 110.654 61.1761 110.342L28.1683 101.423C27.2503 101.174 26.7404 100.769 26.6764 100.355C26.6734 100.355 26.6753 100.354 26.6767 100.352C26.7174 100.087 26.8542 99.8307 27.1163 99.5988L27.1209 99.5953C27.2466 99.5099 27.4026 99.4289 27.5855 99.3573L47.4519 91.4908C48.4162 91.1087 49.88 91.0618 51.0393 91.3756L84.0489 100.293C84.2569 100.349 84.4428 100.413 84.6083 100.485C85.8187 101.002 85.8936 101.859 84.6309 102.36L84.6293 102.361Z" fill="#160872"/>
</g>
<g id="Group_11">
<path id="Vector_29" d="M62.8953 106.917C62.6758 107.17 62.5102 107.477 62.4174 107.824C62.1269 108.908 62.6555 110.019 63.6241 110.498" fill="#375184"/>
<path id="Vector_30" d="M63.3283 111.608C63.2559 111.588 63.1849 111.562 63.1149 111.527C61.6424 110.798 60.8825 109.115 61.3083 107.526C61.445 107.016 61.6868 106.558 62.0271 106.165C62.442 105.686 63.167 105.633 63.6474 106.049C64.127 106.464 64.1792 107.189 63.7643 107.668C63.6533 107.797 63.5737 107.949 63.5277 108.121C63.3841 108.657 63.6393 109.223 64.1345 109.468C64.7029 109.75 64.9359 110.439 64.6546 111.007C64.4076 111.506 63.8468 111.746 63.3289 111.607L63.3283 111.608Z" fill="#160872"/>
</g>
<g id="Group_12">
<path id="Vector_31" d="M84.8091 98.7312L64.9446 106.597C63.9802 106.979 62.5165 107.026 61.3558 106.713L28.348 97.7941C27.43 97.545 26.92 97.1397 26.8561 96.7265C26.8531 96.7257 26.855 96.7246 26.8564 96.7234C26.8971 96.4579 27.0339 96.2018 27.2959 95.9699L27.3005 95.9664C27.4263 95.881 27.5823 95.8 27.7651 95.7284L47.6315 87.8619C48.5959 87.4798 50.0597 87.4329 51.219 87.7467L84.2286 96.6645C84.4366 96.7202 84.6225 96.7842 84.788 96.8558C85.9984 97.3727 86.0733 98.2306 84.8106 98.7316L84.8091 98.7312Z" fill="#375184"/>
<path id="Vector_32" d="M61.0644 107.824L61.057 107.822L28.0484 98.902C26.3185 98.4327 25.8546 97.5425 25.7384 96.9951C25.7378 96.9934 25.7377 96.9918 25.7371 96.9901C25.6969 96.8209 25.6966 96.6477 25.732 96.4825C25.8276 95.963 26.1041 95.4894 26.5351 95.1086C26.5495 95.0957 26.5637 95.0838 26.5791 95.0716C26.6017 95.0536 26.63 95.0323 26.6538 95.0161C26.8513 94.8817 27.083 94.7613 27.3433 94.6589L47.208 86.7931C48.3891 86.3248 50.113 86.2605 51.5026 86.6329L51.5183 86.6371L84.5269 95.5546C84.782 95.6229 85.0231 95.7059 85.2422 95.8008C86.7303 96.4362 86.8797 97.4393 86.8742 97.8413C86.8692 98.236 86.6988 99.2165 85.2324 99.7983L65.3679 107.664C64.1857 108.132 62.4571 108.196 61.0645 107.823L61.0644 107.824ZM28.543 96.6549C28.5765 96.665 28.6121 96.675 28.6488 96.6849L61.6555 105.604L61.6604 105.605C62.5826 105.852 63.7857 105.821 64.5217 105.529L84.0341 97.8032C84.0006 97.7932 83.966 97.7834 83.9307 97.7739L50.9191 88.8556L50.9089 88.8528C49.9881 88.6061 48.7897 88.6381 48.0547 88.9295L28.5435 96.6551L28.543 96.6549Z" fill="#160872"/>
</g>
<g id="Group_13" opacity="0.22">
<path id="Vector_33" d="M76.3742 97.8021C76.2298 97.7398 76.0675 97.6837 75.8859 97.6351L49.8547 90.6023C49.7385 90.6346 49.6268 90.6714 49.5229 90.7128L32.1896 97.5761C32.0306 97.6389 31.8937 97.7092 31.7845 97.7839L31.7805 97.787C31.5517 97.989 31.4325 98.2126 31.3972 98.4444C31.3958 98.4456 31.3945 98.4463 31.3965 98.4469C31.4522 98.807 31.8977 99.1608 32.6982 99.3785L58.7277 106.412C58.8451 106.379 58.9567 106.343 59.0617 106.301L76.3936 99.4388C77.496 99.0019 77.4302 98.2529 76.3741 97.8026L76.3742 97.8021Z" fill="#160872"/>
</g>
<g id="Group_14">
<path id="Vector_34" d="M56.4302 107.36C57.8958 107.392 59.1557 106.16 59.0977 104.571L58.1682 79.6077C58.1238 78.395 57.3009 77.3524 56.1543 77.0478L23.4997 68.4381C22.5903 68.2002 21.7066 68.4671 21.0835 69.0419C22.6239 67.1994 25.5632 66.3155 26.9515 66.6812L59.6032 75.2902C60.7528 75.5951 61.5751 76.638 61.6195 77.8507L62.5465 102.813C62.6135 104.619 60.9158 108.21 56.4303 107.359L56.4302 107.36Z" fill="#385184"/>
<path id="Vector_35" d="M56.1999 108.217C55.7824 108.105 55.5026 107.704 55.5481 107.268C55.5965 106.81 55.9881 106.464 56.4498 106.474C56.9161 106.484 57.3584 106.302 57.695 105.96C58.0472 105.603 58.2303 105.121 58.2112 104.603L57.2817 79.6406C57.2519 78.8237 56.6962 78.1113 55.9301 77.9061L55.9262 77.905L23.273 69.2957C22.7009 69.1461 22.121 69.2913 21.6848 69.6938C21.3412 70.0109 20.8103 70.0066 20.4717 69.6845C20.1331 69.3619 20.1029 68.8324 20.4026 68.4736C22.1416 66.3931 25.4133 65.3592 27.1768 65.8244L59.8285 74.4333L59.8364 74.4354C61.3509 74.8412 62.4475 76.2309 62.5053 77.8186L63.4318 102.781C63.4783 104.023 62.885 105.826 61.4558 107.056C60.517 107.864 58.8545 108.723 56.2642 108.232C56.2423 108.227 56.2205 108.223 56.199 108.217L56.1999 108.217ZM56.3877 76.1926C57.9007 76.598 58.9958 77.9873 59.0541 79.5752L59.9837 104.538C60.0042 105.102 59.9004 105.646 59.6833 106.139C59.902 106.019 60.1076 105.877 60.2999 105.711C61.343 104.814 61.6848 103.507 61.6603 102.847L60.7334 77.8837C60.7036 77.0668 60.147 76.3542 59.3794 76.1485L59.3755 76.1475L26.7253 67.539C26.2446 67.4122 25.4315 67.5076 24.5657 67.8018L56.3805 76.1901L56.3883 76.1922L56.3877 76.1926Z" fill="#160872"/>
</g>
<path id="Vector_36" d="M59.8158 104.682L58.7716 79.7463C58.7215 78.5352 57.884 77.4903 56.7213 77.1813L23.6067 68.4479C22.6845 68.2065 21.7903 68.4695 21.1618 69.0413C21.1588 69.0405 21.1581 69.0435 21.1574 69.0459C20.8034 69.4683 20.5223 69.9396 20.3537 70.4595L20.3515 70.4678C20.307 70.6788 20.2885 70.9026 20.2985 71.1314L21.3421 96.07C21.3922 97.2811 22.2297 98.326 23.3932 98.632L56.5071 107.368C56.7152 107.424 56.9216 107.452 57.1256 107.457C58.6106 107.495 59.8814 106.269 59.816 104.682L59.8158 104.682Z" fill="#385184"/>
<g id="Group_15" opacity="0.4">
<path id="Vector_37" d="M59.8815 104.438L58.8373 79.5013C58.7872 78.2902 57.9497 77.2454 56.7869 76.9364L23.6723 68.2029C22.7501 67.9616 21.856 68.2246 21.2274 68.7964C21.2245 68.7956 21.2237 68.7985 21.2231 68.801C21.0217 69.0413 20.8476 69.2995 20.7002 69.5716C21.1059 69.4752 21.5439 69.4714 21.9891 69.588L55.1037 78.3215C56.2665 78.63 57.1045 79.675 57.154 80.8864L58.1982 105.823C58.2176 106.297 58.1159 106.737 57.927 107.123C59.07 106.818 59.9351 105.753 59.881 104.437L59.8815 104.438Z" fill="white"/>
</g>
<path id="Vector_38" d="M23.1505 99.4857C21.6286 99.0779 20.5218 97.6912 20.4562 96.1072L19.4125 71.169C19.3993 70.8696 19.4232 70.5711 19.4835 70.2852C19.4866 70.2697 19.4907 70.2545 19.4947 70.2394C19.4988 70.2242 19.5051 70.2007 19.51 70.1863C19.7038 69.5903 20.0249 69.0206 20.4656 68.4918C20.4962 68.4539 20.5293 68.4187 20.5652 68.3863C21.4474 67.5845 22.6683 67.2869 23.8312 67.5911L56.9473 76.325L56.9556 76.3272C58.4823 76.7363 59.5921 78.1259 59.6576 79.7104L60.7019 104.646C60.7019 104.646 60.7019 104.646 60.7018 104.647C60.7434 105.65 60.3837 106.592 59.689 107.297C59.0091 107.988 58.0664 108.369 57.1025 108.344C56.8286 108.339 56.5491 108.299 56.2774 108.226L23.167 99.4906L23.1499 99.486L23.1505 99.4857ZM21.2112 70.6925C21.1874 70.8204 21.1786 70.955 21.1846 71.093L22.2282 96.0337C22.2618 96.8501 22.8297 97.5636 23.61 97.7727L23.6188 97.7751L56.7331 106.512C56.8707 106.548 57.0077 106.568 57.1433 106.571C57.6228 106.583 58.0884 106.394 58.4251 106.052C58.7711 105.7 58.9504 105.227 58.9296 104.719L57.8857 79.7834C57.8519 78.9659 57.2815 78.2496 56.4983 78.0398L56.4939 78.0386L23.3807 69.3055C22.812 69.1568 22.2386 69.2859 21.8003 69.6605C21.5305 69.9922 21.3323 70.3383 21.2113 70.692L21.2112 70.6925Z" fill="#160872"/>
<g id="Group_16" opacity="0.22">
<path id="Vector_39" d="M59.7988 105.097C43.9896 100.613 27.3874 97.7093 23.7838 68.9145C23.7776 68.7733 23.7857 68.6354 23.801 68.5L23.6069 68.449C22.6847 68.2077 21.7905 68.4707 21.162 69.0425C21.159 69.0417 21.1583 69.0446 21.1576 69.0471C20.8036 69.4695 20.5225 69.9408 20.3539 70.4606L20.3517 70.4689C20.3072 70.68 20.2887 70.9037 20.2987 71.1325L21.3423 96.0712C21.3924 97.2823 22.2299 98.3272 23.3934 98.6332L56.5073 107.369C56.7154 107.425 56.9218 107.453 57.1258 107.458C58.4783 107.493 59.6497 106.477 59.7991 105.097L59.7988 105.097Z" fill="#160872"/>
</g>
<path id="Vector_40" d="M64.2784 113.836C61.0392 122.352 50.799 127.11 41.4099 124.464C39.3045 123.87 37.4207 122.955 35.801 121.797C29.1012 117.004 28.6828 107.1 34.9677 101.775C36.5987 100.393 38.0918 98.7836 38.4942 97.2819C40.0362 91.5273 35.9437 85.1668 30.4908 83.1082C30.0533 82.9432 30.0807 82.3085 30.5313 82.1795C33.3001 81.3874 36.2842 81.2448 39.2515 81.8972C49.3484 84.109 55.4468 94.2653 52.8021 104.135C52.073 106.856 50.7556 109.267 49.023 111.261C47.8263 112.643 47.6964 114.704 48.8642 116.114C49.428 116.794 50.2934 117.347 51.6188 117.515" fill="#066AFF"/>
<g id="Group_17" opacity="0.22">
<path id="Vector_41" d="M30.4914 83.1077C31.2552 83.3958 31.9909 83.7713 32.6894 84.215C34.3927 84.0807 36.1371 84.1882 37.8756 84.5706C47.9725 86.7824 54.0709 96.9387 51.4263 106.809C51.2202 107.578 50.9624 108.319 50.6664 109.036C51.5962 107.553 52.3267 105.912 52.8026 104.135C55.4473 94.2653 49.3489 84.109 39.252 81.8972C36.2847 81.2448 33.3006 81.3874 30.5318 82.1795C30.0812 82.3085 30.0538 82.9432 30.4912 83.1082L30.4914 83.1077Z" fill="#160872"/>
</g>
<g id="Group_18">
<path id="Vector_42" d="M100.773 115.349C103.051 102.687 97.9702 91.3828 85.9814 86.8684C78.1247 83.907 68.9262 87.5387 68.0385 96.2538C67.9703 96.9311 68.3995 97.5576 69.0569 97.7338C69.3423 97.8102 69.639 97.7916 69.9031 97.6929C70.1672 97.5943 70.4005 97.4128 70.5618 97.1649C70.9401 96.5853 71.3495 96.0561 71.7864 95.5788C73.7066 93.4839 75.8941 93.1068 78.1379 93.7081C81.9683 94.7344 84.0731 99.4806 82.5609 105.124C81.0488 110.768 76.7177 114.506 72.8903 113.48L62.858 116.675C63.9064 123.944 68.009 129.855 75.2441 132.243C86.6385 136.003 98.37 128.72 100.772 115.348L100.773 115.349Z" fill="#066AFF"/>
<g id="Group_19" opacity="0.6">
<path id="Vector_43" d="M85.164 89.9191C97.1527 94.4336 102.233 105.738 99.9554 118.399C99.9162 118.616 99.8682 118.827 99.8245 119.041C100.221 117.869 100.541 116.638 100.773 115.349C103.051 102.687 97.9702 91.3828 85.9814 86.8683C78.2367 83.949 69.1939 87.4404 68.0875 95.8886C70.7147 89.6903 78.4298 87.3813 85.164 89.9191Z" fill="white"/>
</g>
<path id="Vector_44" d="M76.0544 133.683C75.6633 133.578 75.2732 133.461 74.8842 133.333C67.583 130.924 62.9084 125.066 61.7211 116.838C61.6306 116.211 62.0664 115.628 62.6939 115.538C63.3213 115.446 63.9037 115.882 63.9946 116.511C65.0504 123.831 69.1733 129.03 75.604 131.152C80.58 132.795 85.7519 132.251 90.1671 129.623C95.1309 126.667 98.4959 121.526 99.6426 115.145C101.919 102.491 96.5296 92.0675 85.5768 87.9434C81.6022 86.4451 77.1115 86.7695 73.8526 88.7874C71.9543 89.9627 69.6027 92.2326 69.1813 96.3706C69.1644 96.5371 69.3439 96.6759 69.5024 96.6171C69.5298 96.6067 69.5699 96.5843 69.6001 96.5384C70.0094 95.9115 70.46 95.3282 70.94 94.8037C72.9969 92.5587 75.5187 91.817 78.4361 92.5987C83.0482 93.8345 85.2991 99.3474 83.6715 105.422C82.0439 111.496 77.0293 115.779 72.5944 114.59C71.9816 114.426 71.6183 113.796 71.7825 113.183C71.9467 112.571 72.5767 112.207 73.189 112.371C76.3463 113.217 80.1309 109.762 81.4533 104.827C82.7757 99.8915 81.1894 95.7139 77.8423 94.8171C75.7619 94.2596 74.107 94.7479 72.6351 96.3544C72.2397 96.7866 71.8661 97.2704 71.5253 97.7924C71.2322 98.2421 70.811 98.5804 70.3073 98.7686C69.8084 98.9544 69.2742 98.9802 68.7617 98.8429C67.5561 98.5198 66.7722 97.3823 66.8978 96.1385C67.3007 92.1834 69.3418 88.8792 72.6453 86.8339C76.5556 84.413 81.6929 84.0216 86.3885 85.7934C98.4449 90.3333 104.391 101.736 101.905 115.552C100.639 122.596 96.8885 128.294 91.3445 131.596C86.6951 134.364 81.3097 135.09 76.0564 133.683L76.0544 133.683Z" fill="#160872"/>
</g>
<path id="Vector_45" d="M112.018 144.561C105.012 142.684 100.802 139.314 98.3374 136.391C94.5217 131.867 93.942 127.455 93.9193 127.27C93.842 126.64 94.2897 126.067 94.919 125.99C95.5474 125.912 96.1197 126.359 96.1986 126.986C96.2038 127.026 96.7513 131.003 100.181 135.014C104.737 140.341 112.333 143.34 122.148 143.686C130.555 143.983 137.219 140.762 141.955 134.111C145.655 128.916 147.445 122.489 147.886 118.208C148.667 110.623 150.326 101.879 156.27 101.597C159.169 101.459 161.37 102.958 162.309 105.709C162.397 105.967 162.668 106.121 162.94 106.068C163.194 106.019 163.381 105.795 163.394 105.525C163.445 104.487 163.418 103.457 163.315 102.465C162.646 96.0196 158.58 91.9397 152.437 91.5512C146.222 91.1586 138.65 94.8772 136.859 102.542C136.453 104.28 136.122 105.917 135.803 107.5C134.899 111.977 134.185 115.514 132.437 118.088C130.465 120.99 127.396 122.232 122.779 121.993C117.524 121.723 114.99 118.901 113.789 116.581C112.319 113.74 112.211 110.322 113.493 107.203C114.722 104.214 116.936 101.054 119.5 97.3949C125.227 89.2205 132.354 79.047 134.047 63.564C136.356 42.4368 120.705 23.7304 98.4156 20.9776C74.2162 17.9889 56.7317 30.1962 52.7844 52.836C51.6599 59.2863 52.4463 65.977 53.4637 72.2458C53.5651 72.8721 53.1401 73.4617 52.5141 73.5636C51.8878 73.6649 51.2982 73.2399 51.1962 72.614C50.1465 66.1466 49.3386 59.2267 50.5213 52.4415C52.6301 40.3463 58.5049 30.8329 67.5105 24.9289C75.9771 19.3782 86.7613 17.2238 98.6969 18.6981C110.099 20.1061 120.237 25.4696 127.241 33.7999C134.3 42.195 137.528 52.8543 136.33 63.8139C134.574 79.883 126.949 90.7662 121.381 98.7131C118.896 102.26 116.75 105.324 115.618 108.077C114.593 110.571 114.67 113.286 115.829 115.526C117.174 118.124 119.552 119.527 122.897 119.7C130.913 120.113 131.85 115.472 133.55 107.046C133.873 105.446 134.207 103.792 134.621 102.02C136.699 93.1259 145.425 88.8074 152.581 89.2595C158.261 89.6175 164.664 93.2137 165.6 102.228C165.715 103.336 165.744 104.482 165.688 105.637C165.624 106.967 164.673 108.072 163.377 108.323C161.984 108.592 160.59 107.787 160.134 106.45C159.524 104.662 158.261 103.801 156.379 103.89C152.137 104.092 150.804 112.292 150.171 118.443C149.7 123.016 147.785 129.883 143.826 135.443C138.688 142.658 131.164 146.302 122.068 145.981C118.205 145.844 114.878 145.327 112.018 144.561L112.018 144.561Z" fill="#160872"/>
<g id="Group_20" opacity="0.22">
<path id="Vector_46" d="M51.6194 117.515C51.0373 117.441 50.5485 117.29 50.13 117.09C47.1666 117.67 44.0241 117.597 40.9705 116.736C38.8652 116.143 36.9814 115.228 35.3616 114.069C33.2401 112.552 31.7503 110.52 30.9017 108.285C29.6679 113.148 31.3398 118.606 35.8014 121.797C37.421 122.956 39.3049 123.871 41.4103 124.464C50.7995 127.111 61.0396 122.352 64.2788 113.836L51.6197 117.516L51.6194 117.515Z" fill="#160872"/>
<path id="Vector_47" d="M100.773 115.348C101.37 112.031 101.457 108.809 101.051 105.775C98.2359 118.471 86.8286 125.277 75.738 121.616C71.985 120.378 69.6257 118.014 67.5474 115.182L62.859 116.675C63.9075 123.944 68.0101 129.855 75.2452 132.243C86.6396 136.003 98.3711 128.72 100.773 115.349L100.773 115.348Z" fill="#160872"/>
</g>
<path id="Vector_48" d="M41.3532 125.639C41.268 125.617 41.1838 125.594 41.099 125.57C38.9112 124.953 36.9039 123.998 35.1337 122.731C31.6464 120.237 29.5446 116.333 29.3683 112.022C29.1919 107.718 30.9625 103.664 34.2264 100.899C36.4831 98.9867 37.1902 97.7146 37.3858 96.9843C38.8265 91.6076 34.6948 85.9222 30.0862 84.1822C29.4267 83.9336 29.0023 83.2911 29.0313 82.5838C29.0605 81.8756 29.5367 81.2692 30.2168 81.0748C33.2435 80.2092 36.4533 80.1055 39.4993 80.7753C44.6705 81.9076 49.0291 85.0154 51.7735 89.5248C54.5197 94.0373 55.2794 99.3316 53.9125 104.433C53.1534 107.266 51.8005 109.816 49.8911 112.014C49.0377 113 48.9765 114.448 49.7495 115.382C50.2102 115.937 50.8686 116.263 51.7641 116.376C52.392 116.455 52.8391 117.03 52.759 117.66C52.6791 118.289 52.1048 118.735 51.4752 118.655C49.9942 118.467 48.8191 117.859 47.9807 116.847C46.4754 115.031 46.549 112.365 48.1553 110.509C49.8356 108.575 51.0255 106.332 51.6936 103.838C52.8964 99.3494 52.2277 94.6906 49.8108 90.7191C47.3961 86.7513 43.5598 84.0126 39.0066 83.0193C36.9357 82.5635 34.7781 82.5158 32.6743 82.8701C37.5037 85.6089 41.1981 91.6324 39.6047 97.5789C39.1967 99.1016 37.8869 100.808 35.7116 102.651C32.992 104.955 31.5163 108.336 31.6637 111.927C31.8112 115.526 33.5632 118.783 36.4706 120.863C38.0242 121.974 39.7913 122.814 41.7229 123.359C41.798 123.38 41.8752 123.401 41.9506 123.422C50.7067 125.768 60.2043 121.321 63.2064 113.428C63.4319 112.835 64.0949 112.538 64.6884 112.763C65.2812 112.988 65.5792 113.652 65.3537 114.245C61.9432 123.212 51.2185 128.283 41.3546 125.64L41.3532 125.639Z" fill="#160872"/>
</g>
<defs>
<clipPath id="clip0_20_17726">
<rect width="157.8" height="118.6" fill="white" transform="translate(30.6958) rotate(15)"/>
</clipPath>
</defs>
</svg>
