<svg width="21" height="21" viewBox="0 0 21 21" fill="none" xmlns="http://www.w3.org/2000/svg">
<path d="M14.2082 4.91222C15.5857 5.02339 16.6204 5.53117 17.3383 6.42529C16.0438 7.29318 15.3883 8.49193 15.402 10.0016L15.402 10.002C15.4151 11.2378 15.8665 12.277 16.7518 13.0979C17.0923 13.4209 17.468 13.6823 17.8803 13.8817C17.8031 14.0948 17.7228 14.3007 17.6389 14.5002C17.3682 15.1254 17.0483 15.6997 16.6785 16.2269L16.6785 16.2269C16.1624 16.9627 15.7524 17.4532 15.4495 17.7162L15.4495 17.7161L15.4442 17.7209C14.9743 18.1531 14.488 18.3609 13.9787 18.3736C13.6061 18.373 13.1372 18.266 12.5694 18.0325L12.5687 18.0322C11.9585 17.7833 11.3856 17.655 10.8515 17.655C10.2948 17.655 9.70699 17.7826 9.08921 18.0319L9.08895 18.032C8.50371 18.2689 8.05588 18.382 7.73233 18.3929L7.73017 18.393C7.26016 18.413 6.76622 18.209 6.24231 17.7219L6.2424 17.7218L6.2364 17.7166C5.90529 17.4278 5.47607 16.918 4.94818 16.1717L4.94786 16.1713C4.39396 15.392 3.93609 14.4848 3.57608 13.4452C3.19114 12.3239 3 11.2435 3 10.202C3 9.00998 3.25728 7.99653 3.76173 7.15414L3.76174 7.15414L3.76295 7.15208C4.15999 6.47443 4.68601 5.94263 5.34461 5.55169C6.00197 5.16148 6.71051 4.96278 7.47647 4.9497C7.87464 4.95013 8.42163 5.07494 9.13268 5.34017C9.49526 5.47626 9.7971 5.5804 10.0362 5.65086C10.267 5.71886 10.4642 5.76336 10.6054 5.76336C10.6754 5.76336 10.7609 5.74672 10.8454 5.72637C10.9359 5.70455 11.0473 5.67277 11.1781 5.63194C11.4397 5.55022 11.7899 5.42879 12.2264 5.26863C13.0314 4.97899 13.6877 4.86804 14.2072 4.91214L14.2082 4.91222ZM11.7212 1.86929L11.7224 1.86798C12.0376 1.50617 12.4418 1.20124 12.9397 0.955353C13.345 0.757851 13.725 0.635682 14.0801 0.584771C14.0809 0.615726 14.0813 0.646744 14.0813 0.677806C14.0813 1.52768 13.7727 2.32791 13.1381 3.08132C12.421 3.91944 11.5941 4.39718 10.7224 4.40234C10.721 4.36749 10.7202 4.3321 10.7202 4.29615C10.7202 3.48611 11.0746 2.60119 11.7212 1.86929Z" fill="white" stroke="white" stroke-width="0.5"/>
</svg>
