<?xml version="1.0" encoding="UTF-8"?>
<svg fill="none" version="1.1" viewBox="0 0 425 393" xmlns="http://www.w3.org/2000/svg">
<g clip-path="url(#g)">
<g clip-path="url(#f)">
<rect x="94.295" width="236.1" height="390.57" rx="18.122" fill="#1a1a1e"/>
<g clip-path="url(#e)" filter="url(#c)">
<rect transform="translate(89.596)" width="241.98" height="381.17" fill="#1c1a20" fill-opacity=".3"/>
<rect x="98.994" y="32.303" width="227.88" height="348.87" rx="18.122" fill="#211e28"/>
<rect x="99.141" y="32.45" width="227.59" height="348.57" rx="17.975" stroke="#5e5e5e" stroke-opacity=".77" stroke-width=".29366"/>
<circle cx="118.96" cy="59.907" r="8.8098" fill="#edb01a"/>
<circle cx="118.96" cy="59.907" r="9.286" stroke="#c6c6c6" stroke-opacity=".05" stroke-width=".95241"/>
<path d="m123.26 54.551c-0.296 0.4008-0.896 1.0897-1.309 1.504-0.47 0.4699-0.994 0.9223-1.467 1.2667l-0.266 0.1933 0.07 0.1034c0.618 0.9043 0.823 1.7839 0.672 2.8934-0.026 0.1983-0.082 0.5021-0.124 0.6749-0.041 0.1728-0.071 0.318-0.066 0.3227 0.017 0.0167 0.159-0.2048 0.232-0.3624 0.223-0.4776 0.34-1.0686 0.339-1.7099l-2e-3 -0.4115 0.782-0.7879c0.849-0.8547 1.224-1.2602 1.416-1.5297l0.124-0.1731-0.014-0.4204c-8e-3 -0.2313-0.032-0.554-0.053-0.7172-0.043-0.3181-0.148-0.8236-0.195-0.9314l-0.028-0.0658zm-7.63 0.505c-0.417 0.0597-0.845 0.2805-1.176 0.6072-0.361 0.3566-0.566 0.7926-0.619 1.317-0.015 0.1554-0.021 1.1392-0.016 2.634 8e-3 2.0718 0.015 2.4072 0.049 2.5473 0.189 0.7781 0.706 1.3712 1.342 1.5392 0.082 0.0216 0.21 0.0462 0.284 0.0547 0.075 0.0085 0.167 0.0214 0.204 0.0285l0.068 0.0129 6e-3 0.8078 7e-3 0.8077 1.596-1.5884 0.253-0.0043c0.403-0.0068 0.726-0.1001 1.114-0.3226 0.502-0.287 1.005-0.779 1.356-1.3249 0.086-0.1342 0.298-0.5814 0.363-0.7655 0.136-0.3866 0.257-1.109 0.183-1.0975-0.01 0.0016-1.251 0.0016-2.757 0l-2.739-0.0029v-2.3741h2.424c1.333 0 2.423-0.0066 2.423-0.0148 0-0.0081-0.064-0.111-0.142-0.2287s-0.146-0.2216-0.15-0.2309 0.23-0.2193 0.52-0.4668c0.289-0.2475 0.781-0.6677 1.093-0.9338l0.567-0.4839-0.097-0.0837c-0.14-0.1216-0.487-0.3037-0.715-0.3759l-0.198-0.0625-2.584-0.0028c-1.421-0.0016-2.618 0.0019-2.659 0.0077zm8.647 1.1968c-0.484 0.7618-1.011 1.3869-1.973 2.3385l-0.604 0.5974-0.024 0.2805c-0.04 0.4657-0.094 0.8397-0.158 1.0916-0.145 0.5737-0.44 1.1249-0.919 1.7205-0.287 0.3567-0.3 0.3968-0.058 0.1861 0.346-0.3006 0.733-0.7597 0.987-1.169 0.279-0.4498 0.519-1.0495 0.576-1.4403l0.029-0.2017 0.137-0.1011c0.121-0.09 0.786-0.6295 0.856-0.6949 0.015-0.0141 0.11-0.0979 0.21-0.1862 0.575-0.5045 1.107-1.0655 1.112-1.1712 9e-3 -0.2134 8e-3 -1.4996-1e-3 -1.4991-7e-3 4e-4 -0.084 0.1124-0.17 0.2489zm0.961 0.8681c-0.173 0.235-0.675 0.8491-0.896 1.0956-0.487 0.5433-1.269 1.2661-1.803 1.6657-0.135 0.1012-0.141 0.1096-0.171 0.2704-0.178 0.9621-1.007 1.9897-2.29 2.84-0.192 0.1274-0.356 0.2317-0.365 0.2317-8e-3 0-0.057 0.0269-0.108 0.0598-0.05 0.0329-0.231 0.1328-0.401 0.2222-0.344 0.1805-0.337 0.1935 0.062 0.1245 1.146-0.1981 2.226-0.6798 3.178-1.4175 0.43-0.3332 1.063-0.9981 1.353-1.4211 0.057-0.0837 0.115-0.1648 0.128-0.1804 0.08-0.0945 0.513-0.8516 0.685-1.1959 0.354-0.7137 0.539-1.2429 0.673-1.9289 0.093-0.4755 0.1-0.5196 0.081-0.5184-8e-3 6e-4 -0.065 0.0691-0.126 0.1523zm-9.311 1.3847c-8e-3 0.0198-0.011 0.369-7e-3 0.776l7e-3 0.7402 0.18 0.0072 0.179 0.0073v-0.566l0.216-0.0088c0.282-0.0114 0.424-0.0764 0.518-0.2365 0.117-0.2003 0.083-0.4478-0.083-0.6051-0.112-0.1058-0.194-0.1246-0.607-0.1378-0.326-0.0104-0.392-0.0066-0.403 0.0235zm1.496 0.7528v0.7823l0.394-0.0114c0.382-0.011 0.399-0.0137 0.554-0.0901 0.29-0.1425 0.413-0.3502 0.413-0.6965 0-0.2058-0.052-0.3605-0.165-0.4926-0.172-0.2011-0.415-0.2734-0.917-0.2737l-0.279-2e-4zm1.723-0.7658c-9e-3 0.0091-0.016 0.3601-0.016 0.7801v0.7636l0.179-0.0073 0.179-0.0072 0.014-0.6306h0.469v-0.2721h-0.47v-0.3462h0.618v-0.2967h-0.478c-0.263 0-0.486 0.0074-0.495 0.0164zm-2.86 0.4877v0.213h0.12c0.066 0 0.153-0.0117 0.194-0.026 0.126-0.0439 0.171-0.2156 0.084-0.3227-0.038-0.048-0.075-0.059-0.222-0.0673l-0.176-0.01zm1.484 0.2748v0.4575h0.142c0.344 0 0.509-0.1484 0.509-0.4582 1e-3 -0.3009-0.165-0.4568-0.486-0.4568h-0.165z" clip-rule="evenodd" fill="#000" fill-rule="evenodd"/>
<path d="m121.72 59.178 0.415 0.5173-0.023 0.1641c-0.057 0.3909-0.297 0.9906-0.576 1.4404-0.254 0.4093-0.641 0.8683-0.987 1.1689-0.242 0.2107-0.23 0.1706 0.057-0.1861 0.48-0.5956 0.774-1.1468 0.92-1.7204 0.064-0.252 0.118-0.626 0.158-1.0917l0.024-0.2805zm-1.393-1.7354 1.159 1.4441-0.139 0.1402 1e-3 0.4115c2e-3 0.6413-0.115 1.2323-0.338 1.7099-0.074 0.1576-0.216 0.3791-0.232 0.3624-5e-3 -0.0047 0.025-0.1499 0.066-0.3227 0.042-0.1728 0.097-0.4765 0.124-0.6749 0.15-1.1095-0.054-1.989-0.672-2.8934l-0.07-0.1034z" clip-rule="evenodd" fill="#000" fill-rule="evenodd"/>
<path d="m308.86 138.46v2.055c0 1.713-0.685 2.399-2.398 2.399h-2.056c-1.713 0-2.398-0.686-2.398-2.399v-2.055c0-1.713 0.685-2.398 2.398-2.398h2.056c1.713 0 2.398 0.685 2.398 2.398z" stroke="#8a8a8a" stroke-linecap="round" stroke-linejoin="round" stroke-width=".73415"/>
<path d="m311.8 135.52v2.056c0 1.713-0.685 2.398-2.398 2.398h-0.538v-1.517c0-1.713-0.685-2.398-2.398-2.398h-1.518v-0.539c0-1.713 0.685-2.398 2.398-2.398h2.056c1.713 0 2.398 0.685 2.398 2.398z" stroke="#8a8a8a" stroke-linecap="round" stroke-linejoin="round" stroke-width=".73415"/>
<path d="m137.53 149.43h-1.25v-0.724h2.023v5.945h-0.773zm5.684 5.213-4.013 8e-3v-0.616l1.916-1.653c0.962-0.831 1.233-1.234 1.233-1.867 0-0.748-0.427-1.192-1.143-1.192-0.731 0-1.208 0.535-1.225 1.381h-0.806c0.025-1.274 0.831-2.104 2.04-2.104 1.192 0 1.956 0.723 1.956 1.866 0 0.847-0.419 1.447-1.471 2.36l-1.234 1.069h2.747zm1.391-2.976c-0.321 0-0.592-0.264-0.592-0.568 0-0.321 0.271-0.584 0.592-0.584 0.312 0 0.584 0.263 0.584 0.584 0 0.304-0.272 0.568-0.584 0.568zm0 3.083c-0.321 0-0.592-0.263-0.592-0.576 0-0.32 0.271-0.583 0.592-0.583 0.312 0 0.584 0.263 0.584 0.583 0 0.313-0.272 0.576-0.584 0.576zm2.589-5.32h-1.25v-0.724h2.023v5.945h-0.773zm3.662 5.32c-1.217 0-2.006-0.773-2.006-1.957h0.797c0 0.765 0.469 1.233 1.225 1.233 0.806 0 1.324-0.534 1.324-1.34 0-0.765-0.485-1.332-1.315-1.332-0.502 0-0.962 0.239-1.234 0.576l-0.682-0.173 0.723-3.051h2.977v0.74h-2.393l-0.395 1.579c0.313-0.238 0.708-0.362 1.152-0.362 1.208 0 1.989 0.847 1.989 1.99 0 1.234-0.879 2.097-2.162 2.097zm7.378-2.22h-1.505v2.121h-0.806v-5.945h2.311c1.167 0 1.915 0.765 1.915 1.908 0 1.11-0.756 1.916-1.915 1.916zm-0.14-3.1h-1.365v2.376h1.332c0.798 0 1.242-0.468 1.242-1.2 0-0.748-0.453-1.176-1.209-1.176zm3.593 5.221h-0.789v-5.945h0.789l2.047 5 2.048-5h0.806v5.945h-0.79v-2.351c0-1.11 9e-3 -1.513 0.05-1.933l-1.735 4.284h-0.757l-1.726-4.267c0.041 0.288 0.057 0.896 0.057 1.727z" fill="#fff"/>
<path d="m158.9 194.42c0-3.244 2.63-5.873 5.874-5.873h115.11c3.244 0 5.874 2.629 5.874 5.873v38.921c0 3.244-2.63 5.873-5.874 5.873h-115.11c-3.244 0-5.874-2.629-5.874-5.873z" fill="#191b1d"/>
<path d="m168.43 204.93v-0.846h5.009v0.846h-2.039v5.948h-0.921v-5.948zm6.836 6.061c-1.353 0-2.283-0.978-2.283-2.406 0-1.438 0.911-2.434 2.245-2.434 1.307 0 2.162 0.902 2.162 2.265v0.329l-3.552 9e-3c0.065 0.968 0.573 1.504 1.447 1.504 0.686 0 1.137-0.282 1.287-0.808h0.827c-0.225 0.986-0.996 1.541-2.133 1.541zm-0.038-4.097c-0.77 0-1.259 0.46-1.372 1.268h2.65c0-0.761-0.498-1.268-1.278-1.268zm3.863 3.984h-0.884v-6.916h0.884zm2.014 0h-0.883v-6.916h0.883zm4.377 0h-0.883v-4.595h0.789l0.085 0.601c0.235-0.432 0.724-0.733 1.372-0.733 0.714 0 1.222 0.357 1.457 0.93 0.216-0.573 0.77-0.93 1.484-0.93 1.053 0 1.692 0.658 1.692 1.72v3.007h-0.865v-2.791c0-0.724-0.404-1.137-1.024-1.137-0.667 0-1.109 0.47-1.109 1.203v2.725h-0.874v-2.8c0-0.724-0.395-1.119-1.015-1.119-0.667 0-1.109 0.461-1.109 1.194zm9.015 0.113c-1.353 0-2.283-0.978-2.283-2.406 0-1.438 0.911-2.434 2.246-2.434 1.306 0 2.161 0.902 2.161 2.265v0.329l-3.552 9e-3c0.066 0.968 0.573 1.504 1.447 1.504 0.686 0 1.137-0.282 1.287-0.808h0.827c-0.225 0.986-0.996 1.541-2.133 1.541zm-0.037-4.097c-0.771 0-1.26 0.46-1.372 1.268h2.65c0-0.761-0.498-1.268-1.278-1.268zm6.224 3.984h-0.883v-4.595h0.79l0.084 0.601c0.235-0.432 0.724-0.733 1.372-0.733 0.714 0 1.222 0.357 1.457 0.93 0.216-0.573 0.77-0.93 1.484-0.93 1.053 0 1.692 0.658 1.692 1.72v3.007h-0.865v-2.791c0-0.724-0.404-1.137-1.024-1.137-0.667 0-1.109 0.47-1.109 1.203v2.725h-0.874v-2.8c0-0.724-0.394-1.119-1.015-1.119-0.667 0-1.109 0.461-1.109 1.194zm6.732-2.302c0-1.419 1.015-2.415 2.396-2.415 1.372 0 2.387 0.996 2.387 2.415s-1.015 2.415-2.387 2.415c-1.381 0-2.396-0.996-2.396-2.415zm0.892 0c0 0.958 0.611 1.625 1.504 1.625 0.883 0 1.503-0.667 1.503-1.625 0-0.959-0.62-1.626-1.503-1.626-0.893 0-1.504 0.667-1.504 1.626zm7.312-2.331v0.808h-0.395c-0.836 0-1.353 0.508-1.353 1.391v2.434h-0.883v-4.586h0.827l0.056 0.695c0.188-0.479 0.648-0.798 1.278-0.798 0.16 0 0.291 0.019 0.47 0.056zm2.458 4.746c-1.353 0-2.283-0.978-2.283-2.406 0-1.438 0.911-2.434 2.245-2.434 1.307 0 2.162 0.902 2.162 2.265v0.329l-3.552 9e-3c0.065 0.968 0.573 1.504 1.447 1.504 0.686 0 1.137-0.282 1.287-0.808h0.827c-0.225 0.986-0.996 1.541-2.133 1.541zm-0.038-4.097c-0.77 0-1.259 0.46-1.372 1.268h2.65c0-0.761-0.498-1.268-1.278-1.268zm6.686 4.097c-0.987 0-1.569-0.555-1.569-1.391 0-0.846 0.629-1.372 1.71-1.457l1.447-0.112v-0.132c0-0.771-0.461-1.043-1.081-1.043-0.742 0-1.165 0.329-1.165 0.883h-0.771c0-0.958 0.79-1.588 1.974-1.588 1.137 0 1.907 0.602 1.907 1.842v2.885h-0.751l-0.094-0.742c-0.235 0.526-0.865 0.855-1.607 0.855zm0.254-0.686c0.836 0 1.343-0.545 1.343-1.41v-0.244l-1.174 0.094c-0.78 0.075-1.1 0.376-1.1 0.827 0 0.488 0.357 0.733 0.931 0.733zm4.033 0.573h-0.799v-6.916h0.883v3.11c0.301-0.601 0.921-0.921 1.673-0.921 1.315 0 2.105 1.034 2.105 2.453 0 1.391-0.827 2.387-2.162 2.387-0.723 0-1.334-0.32-1.635-0.949zm0.094-2.312c0 0.959 0.545 1.626 1.447 1.626s1.438-0.677 1.438-1.626c0-0.94-0.536-1.616-1.438-1.616s-1.447 0.676-1.447 1.616zm4.253 0.01c0-1.419 1.015-2.415 2.396-2.415 1.372 0 2.387 0.996 2.387 2.415s-1.015 2.415-2.387 2.415c-1.381 0-2.396-0.996-2.396-2.415zm0.893 0c0 0.958 0.61 1.625 1.503 1.625 0.883 0 1.504-0.667 1.504-1.625 0-0.959-0.621-1.626-1.504-1.626-0.893 0-1.503 0.667-1.503 1.626zm7.746-2.293h0.874v4.595h-0.79l-0.093-0.696c-0.264 0.48-0.874 0.809-1.551 0.809-1.071 0-1.673-0.724-1.673-1.852v-2.856h0.884v2.565c0 0.987 0.423 1.363 1.099 1.363 0.808 0 1.25-0.517 1.25-1.504zm3.264 4.595h-0.883v-3.853h-0.902v-0.742h0.902v-1.438h0.883v1.438h0.902v0.742h-0.902zm5.186 0h-0.884v-3.853h-0.902v-0.742h0.902v-1.438h0.884v1.438h0.902v0.742h-0.902zm2.39-0.01h-0.883v-6.906h0.883v3.025c0.291-0.498 0.846-0.836 1.56-0.836 1.174 0 1.738 0.743 1.738 1.917v2.81h-0.883v-2.613c0-0.93-0.442-1.306-1.1-1.306-0.855 0-1.315 0.62-1.315 1.41zm6.317 0.123c-1.354 0-2.284-0.978-2.284-2.406 0-1.438 0.912-2.434 2.246-2.434 1.306 0 2.161 0.902 2.161 2.265v0.329l-3.552 9e-3c0.066 0.968 0.573 1.504 1.447 1.504 0.686 0 1.137-0.282 1.288-0.808h0.827c-0.226 0.986-0.996 1.541-2.133 1.541zm-0.038-4.097c-0.771 0-1.259 0.46-1.372 1.268h2.65c0-0.761-0.498-1.268-1.278-1.268zm2.584 2.649h0.846c0 0.47 0.357 0.752 0.94 0.752 0.62 0 0.977-0.253 0.977-0.676 0-0.31-0.15-0.498-0.63-0.621l-0.808-0.187c-0.817-0.198-1.203-0.602-1.203-1.278 0-0.846 0.714-1.382 1.729-1.382 1.006 0 1.664 0.564 1.682 1.438h-0.845c-0.019-0.461-0.329-0.752-0.865-0.752-0.554 0-0.864 0.244-0.864 0.667 0 0.31 0.225 0.517 0.676 0.63l0.808 0.197c0.78 0.188 1.166 0.545 1.166 1.231 0 0.874-0.752 1.429-1.842 1.429-1.081 0-1.767-0.574-1.767-1.448zm6.383 1.448c-1.353 0-2.283-0.978-2.283-2.406 0-1.438 0.911-2.434 2.245-2.434 1.307 0 2.162 0.902 2.162 2.265v0.329l-3.552 9e-3c0.065 0.968 0.573 1.504 1.447 1.504 0.686 0 1.137-0.282 1.287-0.808h0.827c-0.225 0.986-0.996 1.541-2.133 1.541zm-0.038-4.097c-0.77 0-1.259 0.46-1.372 1.268h2.65c0-0.761-0.498-1.268-1.278-1.268zm-98.226 16.984h-0.883v-4.595h0.799l0.094 0.704c0.291-0.526 0.873-0.836 1.522-0.836 1.212 0 1.767 0.743 1.767 1.917v2.81h-0.884v-2.613c0-0.93-0.432-1.306-1.109-1.306-0.827 0-1.306 0.592-1.306 1.485zm6.317 0.113c-1.353 0-2.284-0.978-2.284-2.406 0-1.438 0.912-2.434 2.246-2.434 1.306 0 2.162 0.902 2.162 2.265v0.329l-3.552 9e-3c0.065 0.968 0.573 1.504 1.447 1.504 0.686 0 1.137-0.282 1.287-0.808h0.827c-0.226 0.986-0.996 1.541-2.133 1.541zm-0.038-4.097c-0.77 0-1.259 0.46-1.372 1.268h2.65c0-0.761-0.498-1.268-1.278-1.268zm3.791 3.984-1.504-4.595h0.912l0.761 2.387c0.104 0.338 0.197 0.686 0.282 1.09 0.075-0.404 0.197-0.79 0.301-1.09l0.77-2.387h0.902l0.762 2.387c0.075 0.225 0.225 0.761 0.3 1.09 0.075-0.367 0.16-0.686 0.292-1.09l0.77-2.387h0.921l-1.569 4.595h-0.837l-0.798-2.462c-0.151-0.461-0.245-0.818-0.292-1.071-0.047 0.225-0.131 0.526-0.3 1.08l-0.799 2.453zm8.852-5.685c-0.319 0-0.582-0.263-0.582-0.583 0-0.329 0.263-0.583 0.582-0.583 0.32 0 0.583 0.254 0.583 0.583 0 0.32-0.263 0.583-0.583 0.583zm-0.432 5.685v-4.595h0.883v4.595zm2.861 0h-0.883v-4.595h0.799l0.093 0.704c0.292-0.526 0.874-0.836 1.523-0.836 1.212 0 1.766 0.743 1.766 1.917v2.81h-0.883v-2.613c0-0.93-0.432-1.306-1.109-1.306-0.827 0-1.306 0.592-1.306 1.485zm5.217 0h-0.883v-4.595h0.799l0.094 0.704c0.291-0.526 0.874-0.836 1.522-0.836 1.212 0 1.767 0.743 1.767 1.917v2.81h-0.884v-2.613c0-0.93-0.432-1.306-1.108-1.306-0.827 0-1.307 0.592-1.307 1.485zm4.034-2.302c0-1.419 1.014-2.415 2.396-2.415 1.372 0 2.387 0.996 2.387 2.415s-1.015 2.415-2.387 2.415c-1.382 0-2.396-0.996-2.396-2.415zm0.892 0c0 0.958 0.611 1.625 1.504 1.625 0.883 0 1.503-0.667 1.503-1.625 0-0.959-0.62-1.626-1.503-1.626-0.893 0-1.504 0.667-1.504 1.626zm5.757 2.302-1.851-4.595h0.939l1.006 2.565c0.16 0.432 0.291 0.818 0.366 1.1 0.076-0.301 0.226-0.696 0.386-1.1l1.024-2.565h0.921l-1.917 4.595zm4.438 0.113c-0.986 0-1.569-0.555-1.569-1.391 0-0.846 0.63-1.372 1.71-1.457l1.448-0.112v-0.132c0-0.771-0.461-1.043-1.081-1.043-0.743 0-1.165 0.329-1.165 0.883h-0.771c0-0.958 0.789-1.588 1.973-1.588 1.137 0 1.908 0.602 1.908 1.842v2.885h-0.752l-0.094-0.742c-0.235 0.526-0.864 0.855-1.607 0.855zm0.254-0.686c0.836 0 1.344-0.545 1.344-1.41v-0.244l-1.175 0.094c-0.78 0.075-1.099 0.376-1.099 0.827 0 0.488 0.357 0.733 0.93 0.733zm4.458 0.573h-0.884v-3.853h-0.902v-0.742h0.902v-1.438h0.884v1.438h0.902v0.742h-0.902zm1.939-5.685c-0.32 0-0.583-0.263-0.583-0.583 0-0.329 0.263-0.583 0.583-0.583 0.319 0 0.583 0.254 0.583 0.583 0 0.32-0.264 0.583-0.583 0.583zm-0.432 5.685v-4.595h0.883v4.595zm1.677-2.302c0-1.419 1.015-2.415 2.396-2.415 1.372 0 2.387 0.996 2.387 2.415s-1.015 2.415-2.387 2.415c-1.381 0-2.396-0.996-2.396-2.415zm0.893 0c0 0.958 0.61 1.625 1.503 1.625 0.883 0 1.504-0.667 1.504-1.625 0-0.959-0.621-1.626-1.504-1.626-0.893 0-1.503 0.667-1.503 1.626zm5.563 2.302h-0.883v-4.595h0.799l0.094 0.704c0.291-0.526 0.873-0.836 1.522-0.836 1.212 0 1.767 0.743 1.767 1.917v2.81h-0.884v-2.613c0-0.93-0.432-1.306-1.109-1.306-0.827 0-1.306 0.592-1.306 1.485zm3.903-1.335h0.846c0 0.47 0.357 0.752 0.94 0.752 0.62 0 0.977-0.253 0.977-0.676 0-0.31-0.15-0.498-0.63-0.621l-0.808-0.187c-0.817-0.198-1.203-0.602-1.203-1.278 0-0.846 0.714-1.382 1.729-1.382 1.006 0 1.664 0.564 1.682 1.438h-0.845c-0.019-0.461-0.329-0.752-0.865-0.752-0.554 0-0.864 0.244-0.864 0.667 0 0.31 0.225 0.517 0.676 0.63l0.808 0.197c0.78 0.188 1.166 0.545 1.166 1.231 0 0.874-0.752 1.429-1.842 1.429-1.081 0-1.767-0.574-1.767-1.448z" fill="#fff"/>
<path d="m256.76 249.88h-1.25v-0.723h2.023v5.945h-0.773zm5.684 5.213-4.012 9e-3v-0.617l1.915-1.653c0.962-0.83 1.234-1.233 1.234-1.866 0-0.749-0.428-1.193-1.143-1.193-0.732 0-1.209 0.535-1.225 1.382h-0.806c0.025-1.275 0.83-2.105 2.039-2.105 1.192 0 1.957 0.723 1.957 1.866 0 0.847-0.419 1.447-1.472 2.36l-1.233 1.069h2.746zm1.391-2.976c-0.32 0-0.592-0.263-0.592-0.568 0-0.32 0.272-0.583 0.592-0.583 0.313 0 0.584 0.263 0.584 0.583 0 0.305-0.271 0.568-0.584 0.568zm0 3.083c-0.32 0-0.592-0.263-0.592-0.575 0-0.321 0.272-0.584 0.592-0.584 0.313 0 0.584 0.263 0.584 0.584 0 0.312-0.271 0.575-0.584 0.575zm2.59-5.32h-1.25v-0.723h2.022v5.945h-0.772zm3.661 5.32c-1.216 0-2.006-0.773-2.006-1.957h0.798c0 0.765 0.468 1.234 1.225 1.234 0.806 0 1.324-0.535 1.324-1.341 0-0.764-0.485-1.332-1.316-1.332-0.501 0-0.962 0.239-1.233 0.576l-0.683-0.173 0.724-3.05h2.976v0.74h-2.392l-0.395 1.578c0.312-0.238 0.707-0.361 1.151-0.361 1.209 0 1.99 0.847 1.99 1.989 0 1.234-0.88 2.097-2.163 2.097zm7.378-2.22h-1.505v2.122h-0.805v-5.945h2.31c1.168 0 1.916 0.764 1.916 1.907 0 1.11-0.756 1.916-1.916 1.916zm-0.14-3.1h-1.365v2.377h1.332c0.798 0 1.242-0.469 1.242-1.201 0-0.748-0.452-1.176-1.209-1.176zm3.594 5.222h-0.79v-5.945h0.79l2.047 4.999 2.047-4.999h0.806v5.945h-0.789v-2.352c0-1.11 8e-3 -1.513 0.049-1.932l-1.735 4.284h-0.756l-1.727-4.268c0.041 0.288 0.058 0.896 0.058 1.727z" fill="#fff"/>
<path d="m310.67 198.94c2e-3 1.403-0.281 2.792-0.831 4.082-0.551 1.29-1.357 2.456-2.371 3.425-0.02 0.021-0.042 0.041-0.065 0.061l-0.038 0.037-0.014 0.013c-0.27 0.251-0.552 0.488-0.846 0.709-0.243 0.183-0.494 0.354-0.753 0.515-0.326 0.203-0.662 0.388-1.009 0.553l-0.235 0.109c-1.183 0.529-2.454 0.831-3.749 0.891h-0.035c-0.153 7e-3 -0.307 0.011-0.463 0.01-0.155 0-0.309-3e-3 -0.461-0.01h-0.037c-1.341-0.061-2.658-0.384-3.876-0.949l-0.107-0.051c-0.393-0.187-0.774-0.398-1.14-0.634-0.213-0.137-0.421-0.282-0.624-0.434-0.288-0.216-0.565-0.447-0.829-0.693l-0.015-0.014-0.074-0.07c-9e-3 -7e-3 -0.018-0.015-0.026-0.023l-0.06-0.059c-1.233-1.197-2.149-2.68-2.669-4.318-0.52-1.637-0.626-3.377-0.309-5.066 0.316-1.688 1.046-3.272 2.123-4.61 1.078-1.337 2.47-2.388 4.052-3.057s3.305-0.936 5.016-0.777c1.71 0.159 3.355 0.738 4.787 1.687 1.431 0.949 2.606 2.238 3.419 3.751s1.238 3.204 1.239 4.922z" fill="#424242"/>
<path d="m304.56 203.82v-1.175c0-0.623-0.247-1.22-0.688-1.661-0.44-0.441-1.038-0.688-1.661-0.688h-4.699c-0.623 0-1.22 0.247-1.661 0.688-0.44 0.441-0.688 1.038-0.688 1.661v1.175m7.048-8.223c0 1.298-1.052 2.35-2.349 2.35-1.298 0-2.35-1.052-2.35-2.35 0-1.297 1.052-2.349 2.35-2.349 1.297 0 2.349 1.052 2.349 2.349z" stroke="#fff" stroke-linecap="round" stroke-linejoin="round" stroke-width="1.1746"/>
<line x1="98.994" x2="326.89" y1="301" y2="301.3" stroke="#fff" stroke-opacity=".08" stroke-width=".58732"/>
<g clip-path="url(#d)">
<rect x="234.08" y="12.333" width="61.62" height="11.746" rx="5.8732" fill="#fff" fill-opacity=".12"/>
<path d="m239.95 14.096s2.423-0.1083 3.708 2.3188h-3.915s-0.738-0.0237-1.369 0.8692c-0.182 0.3748-0.377 0.7609-0.158 1.5218-0.315-0.5317-1.672-2.8866-1.672-2.8866s0.957-1.7272 3.405-1.8232z" fill="#ef3f36"/>
<path d="m243.54 20.258s-1.118 2.146-3.869 2.0399c0.34-0.5859 1.958-3.3777 1.958-3.3777s0.391-0.6254-0.071-1.6166c-0.234-0.3443-0.473-0.7044-1.243-0.8963 0.619-0.0056 3.344 0 3.344 0s1.021 1.69-0.119 3.8507z" fill="#fcd900"/>
<path d="m236.39 20.275s-1.306-2.0377 0.162-4.3587c0.339 0.5859 1.957 3.3777 1.957 3.3777s0.348 0.6502 1.44 0.7473c0.415-0.0305 0.848-0.0564 1.401-0.6243-0.305 0.5374-1.672 2.8855-1.672 2.8855s-1.981 0.0361-3.288-2.0275z" fill="#61bc5b"/>
<path d="m239.66 22.318 0.551-2.2894s0.605-0.0475 1.112-0.6017c-0.315 0.552-1.663 2.8911-1.663 2.8911z" fill="#5ab055"/>
<path d="m238.11 18.233c0-1.0092 0.822-1.8276 1.835-1.8276 1.012 0 1.834 0.8184 1.834 1.8276 0 1.0093-0.822 1.8277-1.834 1.8277-1.013-0.0011-1.835-0.8184-1.835-1.8277z" fill="#fff"/>
<path d="m238.42 18.233c0-0.8399 0.683-1.5218 1.527-1.5218 0.843 0 1.527 0.6808 1.527 1.5218 0 0.8399-0.683 1.5218-1.527 1.5218-0.843 0-1.527-0.6819-1.527-1.5218z" fill="url(#a)"/>
<path d="m243.65 16.409-2.267 0.6627s-0.342-0.5001-1.077-0.6627c0.637-0.0034 3.344 0 3.344 0z" fill="#eaca05"/>
<path d="m238.18 18.723c-0.318-0.5498-1.628-2.8031-1.628-2.8031l1.679 1.655s-0.172 0.3534-0.108 0.8591z" fill="#df3a32"/>
<path d="m251.05 18.682h-2.336v2.5243h-0.805v-5.9449h3.585v0.74h-2.78v1.9488h2.336zm0.629 0.5097c0-1.2415 0.888-2.1131 2.097-2.1131 1.201 0 2.089 0.8716 2.089 2.1131 0 1.2416-0.888 2.1132-2.089 2.1132-1.209 0-2.097-0.8716-2.097-2.1132zm0.782 0c0 0.8387 0.534 1.4225 1.315 1.4225 0.773 0 1.316-0.5838 1.316-1.4225 0-0.8386-0.543-1.4224-1.316-1.4224-0.781 0-1.315 0.5838-1.315 1.4224zm6.479-2.0391v0.7071h-0.345c-0.732 0-1.184 0.444-1.184 1.2169v2.1297h-0.773v-4.0126h0.724l0.049 0.6084c0.164-0.4193 0.567-0.6989 1.118-0.6989 0.14 0 0.255 0.0165 0.411 0.0494zm5.407 4.1441c-1.693 0-2.82-1.2169-2.82-3.0588 0-1.8336 1.159-3.0752 2.862-3.0752 1.34 0 2.368 0.7976 2.59 2.0145h-0.864c-0.222-0.7729-0.888-1.2416-1.751-1.2416-1.201 0-1.99 0.9045-1.99 2.2941s0.789 2.2941 1.99 2.2941c0.871 0 1.562-0.4687 1.784-1.2005h0.855c-0.255 1.184-1.315 1.9734-2.656 1.9734zm4.163-0.0987h-0.773v-6.0435h0.773v2.6476c0.255-0.4357 0.74-0.7318 1.365-0.7318 1.028 0 1.521 0.6496 1.521 1.6774v2.4586h-0.773v-2.2859c0-0.814-0.386-1.1429-0.962-1.1429-0.748 0-1.151 0.5427-1.151 1.2334zm6.177-4.0454v0.7071h-0.345c-0.732 0-1.184 0.444-1.184 1.2169v2.1297h-0.773v-4.0126h0.723l0.05 0.6084c0.164-0.4193 0.567-0.6989 1.118-0.6989 0.14 0 0.255 0.0165 0.411 0.0494zm0.235 2.0391c0-1.2415 0.888-2.1131 2.097-2.1131 1.2 0 2.088 0.8716 2.088 2.1131 0 1.2416-0.888 2.1132-2.088 2.1132-1.209 0-2.097-0.8716-2.097-2.1132zm0.781 0c0 0.8387 0.535 1.4225 1.316 1.4225 0.773 0 1.315-0.5838 1.315-1.4225 0-0.8386-0.542-1.4224-1.315-1.4224-0.781 0-1.316 0.5838-1.316 1.4224zm4.951 2.0146h-0.773v-4.0208h0.69l0.074 0.5262c0.206-0.3782 0.633-0.6414 1.201-0.6414 0.625 0 1.069 0.3125 1.274 0.8141 0.189-0.5016 0.675-0.8141 1.299-0.8141 0.921 0 1.481 0.5756 1.481 1.5048v2.6312h-0.757v-2.4421c0-0.6332-0.354-0.9949-0.896-0.9949-0.584 0-0.97 0.4111-0.97 1.0524v2.3846h-0.765v-2.4503c0-0.6332-0.345-0.9785-0.888-0.9785-0.584 0-0.97 0.4029-0.97 1.0442zm7.97 0.0986c-1.184 0-1.998-0.8551-1.998-2.1049 0-1.2581 0.797-2.1297 1.965-2.1297 1.143 0 1.891 0.7894 1.891 1.9817v0.2878l-3.108 0.0082c0.057 0.8469 0.501 1.3156 1.266 1.3156 0.6 0 0.995-0.2467 1.127-0.7072h0.723c-0.197 0.8634-0.871 1.3485-1.866 1.3485zm-0.033-3.585c-0.674 0-1.102 0.4029-1.201 1.1101h2.319c0-0.6661-0.436-1.1101-1.118-1.1101z" fill="#f9f9f9"/>
</g>
<circle cx="158.02" cy="21.438" r="2.0556" fill="#edb01a"/>
<path d="m108.4 22.054c-0.987 0-1.588-0.5732-1.588-1.4472 0-0.8551 0.62-1.3907 1.72-1.4753l1.39-0.1034v-0.1033c0-0.6296-0.375-0.8834-0.958-0.8834-0.677 0-1.053 0.2819-1.053 0.7706h-0.977c0-1.0055 0.827-1.6633 2.086-1.6633 1.25 0 2.021 0.6766 2.021 1.964v2.8191h-1.006l-0.084-0.6859c-0.198 0.4792-0.827 0.8081-1.551 0.8081zm0.376-0.8645c0.705 0 1.156-0.4229 1.156-1.1371v-0.2443l-0.968 0.0752c-0.714 0.0657-0.987 0.3007-0.987 0.6766 0 0.4228 0.282 0.6296 0.799 0.6296zm3.034-0.6672h1.09c9e-3 0.404 0.31 0.6578 0.836 0.6578 0.536 0 0.827-0.2162 0.827-0.5545 0-0.2349-0.122-0.404-0.535-0.498l-0.837-0.1973c-0.836-0.188-1.24-0.5827-1.24-1.325 0-0.9116 0.77-1.4566 1.842-1.4566 1.043 0 1.748 0.6014 1.757 1.5035h-1.09c-0.01-0.3946-0.273-0.6484-0.714-0.6484-0.451 0-0.715 0.2068-0.715 0.5545 0 0.2631 0.207 0.4322 0.602 0.5262l0.836 0.1974c0.78 0.1785 1.175 0.5356 1.175 1.2498 0 0.9397-0.799 1.5223-1.945 1.5223-1.156 0-1.889-0.6202-1.889-1.5317zm5.863 1.4095h-1.137v-6.9914h1.137v4.2945l1.804-1.9452h1.438l-1.767 1.8418 1.729 2.8003h-1.316l-1.212-1.9546-0.676 0.7048zm3.496 2.152v-0.9585h0.686c0.451 0 0.733-0.1034 0.93-0.6484l0.132-0.3477-1.87-4.8395h1.212l1.194 3.3829 1.259-3.3829h1.184l-2.274 5.6758c-0.348 0.8646-0.837 1.2217-1.598 1.2217-0.319 0-0.601-0.0376-0.855-0.1034zm4.895-4.4824c0-1.4472 1.043-2.4433 2.48-2.4433 1.438 0 2.481 0.9961 2.481 2.4433 0 1.4471-1.043 2.4432-2.481 2.4432-1.437 0-2.48-0.9961-2.48-2.4432zm1.146 0c0 0.8457 0.545 1.4189 1.334 1.4189 0.79 0 1.335-0.5732 1.335-1.4189 0-0.8458-0.545-1.419-1.335-1.419-0.789 0-1.334 0.5732-1.334 1.419zm7.762-2.3117h1.146v4.6421h-1.062l-0.084-0.6202c-0.282 0.4417-0.883 0.7424-1.504 0.7424-1.071 0-1.701-0.7236-1.701-1.8606v-2.9037h1.147v2.4996c0 0.8833 0.348 1.2404 0.987 1.2404 0.723 0 1.071-0.4229 1.071-1.3062zm5.244-0.0188v1.0618h-0.423c-0.827 0-1.344 0.4417-1.344 1.3438v2.2553h-1.147v-4.6327h1.081l0.066 0.6766c0.197-0.4605 0.639-0.7706 1.259-0.7706 0.16 0 0.32 0.0188 0.508 0.0658zm0.776 6.8129v-6.7941h1.061l0.076 0.7047c0.281-0.5356 0.892-0.8457 1.597-0.8457 1.306 0 2.171 0.9491 2.171 2.4057 0 1.4471-0.79 2.4996-2.171 2.4996-0.695 0-1.297-0.2725-1.588-0.7424v2.7722zm1.155-4.473c0 0.8363 0.517 1.4095 1.307 1.4095 0.808 0 1.287-0.5826 1.287-1.4095 0-0.827-0.479-1.419-1.287-1.419-0.79 0-1.307 0.5826-1.307 1.419zm6.57 2.4432c-1.344 0-2.18-0.9867-2.18-2.4245 0-1.4471 0.846-2.4808 2.246-2.4808 0.648 0 1.222 0.2725 1.513 0.733v-2.9413h1.137v6.9914h-1.052l-0.076-0.7235c-0.282 0.5356-0.883 0.8457-1.588 0.8457zm0.254-1.0525c0.799 0 1.316-0.5732 1.316-1.4095 0-0.8364-0.517-1.419-1.316-1.419s-1.287 0.592-1.287 1.419c0 0.8269 0.488 1.4095 1.287 1.4095zm3.196-3.7118h0.668v-0.5639c0-1.2592 0.667-1.7854 1.672-1.7854 0.179 0 0.395 0.0094 0.592 0.047v0.9773h-0.404c-0.582 0-0.723 0.3007-0.723 0.7611v0.5639h1.108v0.9585h-1.108v3.6836h-1.137v-3.6836h-0.668z" fill="#fff"/>
<path d="m307.49 24.422c-3.482 0-6.313-2.8309-6.313-6.3137s2.831-6.3137 6.313-6.3137c3.483 0 6.314 2.8309 6.314 6.3137s-2.831 6.3137-6.314 6.3137zm0-11.746c-2.995 0-5.432 2.4374-5.432 5.4327s2.437 5.4327 5.432 5.4327c2.996 0 5.433-2.4374 5.433-5.4327s-2.437-5.4327-5.433-5.4327z" fill="#fff"/>
<path d="m305.83 20.212c-0.112 0-0.224-0.0412-0.312-0.1293-0.17-0.1703-0.17-0.4522 0-0.6225l3.325-3.3242c0.17-0.1704 0.452-0.1704 0.622 0 0.17 0.1703 0.17 0.4522 0 0.6225l-3.324 3.3242c-0.082 0.0881-0.2 0.1293-0.311 0.1293z" fill="#fff"/>
<path d="m309.15 20.212c-0.112 0-0.223-0.0412-0.311-0.1293l-3.325-3.3242c-0.17-0.1703-0.17-0.4522 0-0.6225 0.171-0.1704 0.453-0.1704 0.623 0l3.324 3.3242c0.17 0.1703 0.17 0.4522 0 0.6225-0.088 0.0881-0.2 0.1293-0.311 0.1293z" fill="#fff"/>
</g>
<rect x="134.82" y="52.27" width="160.93" height="89.667" rx="5.8732" fill="#1b1821"/>
<path d="m145.93 74.604h-0.921v-6.7941h0.921v2.9225h3.364v-2.9225h0.921v6.7941h-0.921v-3.0165h-3.364zm7.505 0.1128c-1.353 0-2.283-0.9773-2.283-2.4057 0-1.4378 0.911-2.4339 2.246-2.4339 1.306 0 2.161 0.9022 2.161 2.2647v0.3289l-3.552 0.0094c0.066 0.9679 0.573 1.5036 1.447 1.5036 0.686 0 1.137-0.2819 1.288-0.8082h0.827c-0.226 0.9867-0.997 1.5412-2.134 1.5412zm-0.037-4.0972c-0.771 0-1.259 0.4605-1.372 1.2686h2.65c0-0.7611-0.498-1.2686-1.278-1.2686zm3.862 3.9844h-0.883v-6.9163h0.883zm2.014 0h-0.883v-6.9163h0.883zm0.812-2.3023c0-1.419 1.015-2.4151 2.396-2.4151 1.372 0 2.387 0.9961 2.387 2.4151s-1.015 2.4151-2.387 2.4151c-1.381 0-2.396-0.9961-2.396-2.4151zm0.893 0c0 0.9585 0.611 1.6257 1.503 1.6257 0.884 0 1.504-0.6672 1.504-1.6257s-0.62-1.6257-1.504-1.6257c-0.892 0-1.503 0.6672-1.503 1.6257zm5.721 1.9358c0 0.6766-0.508 1.2404-1.175 1.325v-0.3947c0.385-0.0658 0.658-0.3195 0.658-0.6108-0.066 0.0376-0.141 0.0564-0.254 0.0564-0.31 0-0.573-0.2255-0.573-0.5732 0-0.3759 0.254-0.6484 0.629-0.6484 0.395 0 0.715 0.3289 0.715 0.8457zm4.537-6.4276v6.7941h-0.921v-6.7941zm4.971 6.9069c-0.987 0-1.569-0.5545-1.569-1.3908 0-0.8458 0.629-1.372 1.71-1.4566l1.447-0.1127v-0.1316c0-0.7706-0.46-1.0431-1.081-1.0431-0.742 0-1.165 0.3289-1.165 0.8834h-0.77c0-0.9586 0.789-1.5882 1.973-1.5882 1.137 0 1.908 0.6015 1.908 1.8419v2.8849h-0.752l-0.094-0.7424c-0.235 0.5263-0.865 0.8552-1.607 0.8552zm0.254-0.686c0.836 0 1.344-0.5451 1.344-1.4096v-0.2443l-1.175 0.0939c-0.78 0.0752-1.1 0.3759-1.1 0.827 0 0.4886 0.358 0.733 0.931 0.733zm4.117 0.5732h-0.883v-4.5952h0.789l0.085 0.6014c0.235-0.4323 0.724-0.733 1.372-0.733 0.714 0 1.222 0.3571 1.457 0.9304 0.216-0.5733 0.77-0.9304 1.484-0.9304 1.053 0 1.692 0.6578 1.692 1.7197v3.0071h-0.865v-2.791c0-0.7235-0.404-1.137-1.024-1.137-0.667 0-1.109 0.4699-1.109 1.2028v2.7252h-0.874v-2.8004c0-0.7235-0.395-1.1182-1.015-1.1182-0.667 0-1.109 0.4605-1.109 1.1934zm10.758 0.1128c-0.987 0-1.57-0.5545-1.57-1.3908 0-0.8458 0.63-1.372 1.711-1.4566l1.447-0.1127v-0.1316c0-0.7706-0.461-1.0431-1.081-1.0431-0.742 0-1.165 0.3289-1.165 0.8834h-0.771c0-0.9586 0.79-1.5882 1.974-1.5882 1.137 0 1.907 0.6015 1.907 1.8419v2.8849h-0.751l-0.094-0.7424c-0.235 0.5263-0.865 0.8552-1.607 0.8552zm0.253-0.686c0.837 0 1.344-0.5451 1.344-1.4096v-0.2443l-1.174 0.0939c-0.78 0.0752-1.1 0.3759-1.1 0.827 0 0.4886 0.357 0.733 0.93 0.733zm6.5 0.5732h-0.884v-4.5952h0.79l0.084 0.6014c0.235-0.4323 0.724-0.733 1.372-0.733 0.714 0 1.222 0.3571 1.457 0.9304 0.216-0.5733 0.77-0.9304 1.484-0.9304 1.053 0 1.692 0.6578 1.692 1.7197v3.0071h-0.865v-2.791c0-0.7235-0.404-1.137-1.024-1.137-0.667 0-1.109 0.4699-1.109 1.2028v2.7252h-0.874v-2.8004c0-0.7235-0.394-1.1182-1.015-1.1182-0.667 0-1.108 0.4605-1.108 1.1934zm10.208-4.5952h0.874v4.5952h-0.79l-0.094-0.6954c-0.263 0.4793-0.874 0.8082-1.55 0.8082-1.071 0-1.673-0.7236-1.673-1.8513v-2.8567h0.883v2.5654c0 0.9867 0.423 1.3626 1.1 1.3626 0.808 0 1.25-0.5168 1.25-1.5035zm2.869 4.5952h-0.883v-6.9163h0.883zm2.41 0h-0.884v-3.8528h-0.902v-0.7424h0.902v-1.4378h0.884v1.4378h0.902v0.7424h-0.902zm1.939-5.6853c-0.32 0-0.583-0.2631-0.583-0.5826 0-0.3289 0.263-0.5826 0.583-0.5826 0.319 0 0.582 0.2537 0.582 0.5826 0 0.3195-0.263 0.5826-0.582 0.5826zm-0.432 5.6853v-4.5952h0.883v4.5952zm2.88 0h-0.884v-6.9163h0.884zm1.544-5.6853c-0.319 0-0.582-0.2631-0.582-0.5826 0-0.3289 0.263-0.5826 0.582-0.5826 0.32 0 0.583 0.2537 0.583 0.5826 0 0.3195-0.263 0.5826-0.583 0.5826zm-0.432 5.6853v-4.5952h0.883v4.5952zm2.861 0h-0.883v-4.5952h0.798l0.094 0.7048c0.292-0.5263 0.874-0.8364 1.523-0.8364 1.212 0 1.766 0.7424 1.766 1.9171v2.8097h-0.883v-2.6124c0-0.9303-0.432-1.3062-1.109-1.3062-0.827 0-1.306 0.592-1.306 1.4847zm4.043-2.4151c0-1.2968 0.836-2.3117 2.17-2.3117 0.743 0 1.316 0.3383 1.607 0.9116l0.066-0.78h0.789v4.4072c0 1.4472-0.892 2.3681-2.302 2.3681-1.25 0-2.105-0.7048-2.274-1.87h0.883c0.113 0.6766 0.621 1.0713 1.391 1.0713 0.865 0 1.428-0.5639 1.428-1.4378v-0.9209c-0.3 0.5356-0.902 0.8551-1.625 0.8551-1.306 0-2.133-1.0055-2.133-2.2929zm0.883-0.0188c0 0.8646 0.536 1.5412 1.4 1.5412 0.893 0 1.438-0.639 1.438-1.5412 0-0.8833-0.526-1.5223-1.428-1.5223-0.884 0-1.41 0.6766-1.41 1.5223zm8.012-2.1613h0.874v4.5952h-0.789l-0.094-0.6954c-0.263 0.4793-0.874 0.8082-1.55 0.8082-1.072 0-1.673-0.7236-1.673-1.8513v-2.8567h0.883v2.5654c0 0.9867 0.423 1.3626 1.1 1.3626 0.808 0 1.249-0.5168 1.249-1.5035zm3.312 4.708c-0.987 0-1.569-0.5545-1.569-1.3908 0-0.8458 0.629-1.372 1.71-1.4566l1.447-0.1127v-0.1316c0-0.7706-0.461-1.0431-1.081-1.0431-0.742 0-1.165 0.3289-1.165 0.8834h-0.771c0-0.9586 0.79-1.5882 1.974-1.5882 1.137 0 1.907 0.6015 1.907 1.8419v2.8849h-0.751l-0.094-0.7424c-0.235 0.5263-0.865 0.8552-1.607 0.8552zm0.254-0.686c0.836 0 1.343-0.5451 1.343-1.4096v-0.2443l-1.174 0.0939c-0.78 0.0752-1.1 0.3759-1.1 0.827 0 0.4886 0.357 0.733 0.931 0.733zm4.136 0.5732h-0.883v-6.9163h0.883zm-95.876 13.113c-1.335 0-2.143-0.9961-2.143-2.3963 0-1.4096 0.818-2.4433 2.18-2.4433 0.705 0 1.297 0.3101 1.607 0.874v-3.0635h0.874v6.9163h-0.789l-0.075-0.8364c-0.301 0.6297-0.921 0.9492-1.654 0.9492zm0.178-0.7988c0.902 0 1.457-0.6672 1.457-1.6257 0-0.9397-0.555-1.6163-1.457-1.6163s-1.428 0.6766-1.428 1.6163c0 0.9491 0.526 1.6257 1.428 1.6257zm3.126-1.6163c0-1.419 1.015-2.4151 2.396-2.4151 1.372 0 2.387 0.9961 2.387 2.4151s-1.015 2.4151-2.387 2.4151c-1.381 0-2.396-0.9961-2.396-2.4151zm0.892 0c0 0.9585 0.611 1.6257 1.504 1.6257 0.883 0 1.504-0.6672 1.504-1.6257s-0.621-1.6257-1.504-1.6257c-0.893 0-1.504 0.6672-1.504 1.6257zm4.38 0.0094c0-1.4378 0.912-2.4339 2.255-2.4339 1.156 0 1.964 0.6578 2.124 1.6821h-0.883c-0.151-0.5826-0.62-0.8927-1.212-0.8927-0.837 0-1.41 0.639-1.41 1.6351 0 0.9867 0.536 1.6257 1.372 1.6257 0.63 0 1.099-0.3289 1.259-0.8739h0.884c-0.179 0.9961-1.034 1.6633-2.143 1.6633-1.353 0-2.246-0.9585-2.246-2.4057zm8.309-2.3023h0.874v4.5952h-0.79l-0.094-0.6954c-0.263 0.4793-0.874 0.8082-1.55 0.8082-1.071 0-1.673-0.7236-1.673-1.8513v-2.8567h0.884v2.5654c0 0.9867 0.422 1.3626 1.099 1.3626 0.808 0 1.25-0.5168 1.25-1.5035zm2.851 4.5952h-0.884v-4.5952h0.79l0.084 0.6014c0.235-0.4323 0.724-0.733 1.372-0.733 0.714 0 1.222 0.3571 1.457 0.9304 0.216-0.5733 0.77-0.9304 1.485-0.9304 1.052 0 1.691 0.6578 1.691 1.7197v3.0071h-0.864v-2.791c0-0.7235-0.405-1.137-1.025-1.137-0.667 0-1.109 0.4699-1.109 1.2028v2.7252h-0.874v-2.8004c0-0.7235-0.394-1.1182-1.014-1.1182-0.668 0-1.109 0.4605-1.109 1.1934zm9.014 0.1128c-1.353 0-2.283-0.9773-2.283-2.4057 0-1.4378 0.911-2.4339 2.246-2.4339 1.306 0 2.161 0.9022 2.161 2.2647v0.3289l-3.552 0.0094c0.066 0.9679 0.573 1.5036 1.447 1.5036 0.686 0 1.137-0.2819 1.288-0.8082h0.827c-0.226 0.9867-0.997 1.5412-2.134 1.5412zm-0.037-4.0972c-0.771 0-1.259 0.4605-1.372 1.2686h2.65c0-0.7611-0.498-1.2686-1.278-1.2686zm3.843 3.9844h-0.883v-4.5952h0.799l0.094 0.7048c0.291-0.5263 0.874-0.8364 1.522-0.8364 1.212 0 1.767 0.7424 1.767 1.9171v2.8097h-0.884v-2.6124c0-0.9303-0.432-1.3062-1.109-1.3062-0.827 0-1.306 0.592-1.306 1.4847zm5.631 0h-0.883v-3.8528h-0.903v-0.7424h0.903v-1.4378h0.883v1.4378h0.902v0.7424h-0.902zm5.232 0.1128c-0.987 0-1.569-0.5545-1.569-1.3908 0-0.8458 0.629-1.372 1.71-1.4566l1.447-0.1127v-0.1316c0-0.7706-0.46-1.0431-1.08-1.0431-0.743 0-1.166 0.3289-1.166 0.8834h-0.77c0-0.9586 0.789-1.5882 1.973-1.5882 1.137 0 1.908 0.6015 1.908 1.8419v2.8849h-0.752l-0.094-0.7424c-0.235 0.5263-0.864 0.8552-1.607 0.8552zm0.254-0.686c0.836 0 1.344-0.5451 1.344-1.4096v-0.2443l-1.175 0.0939c-0.78 0.0752-1.099 0.3759-1.099 0.827 0 0.4886 0.357 0.733 0.93 0.733zm2.858-0.7612h0.846c0 0.4699 0.357 0.7518 0.94 0.7518 0.62 0 0.977-0.2538 0.977-0.6766 0-0.3101-0.15-0.4981-0.63-0.6202l-0.808-0.188c-0.817-0.1973-1.203-0.6014-1.203-1.278 0-0.8457 0.715-1.3814 1.73-1.3814 1.005 0 1.663 0.5639 1.682 1.4378h-0.846c-0.019-0.4605-0.329-0.7518-0.865-0.7518-0.554 0-0.864 0.2444-0.864 0.6672 0 0.3101 0.225 0.5169 0.676 0.6296l0.809 0.1974c0.78 0.1879 1.165 0.545 1.165 1.231 0 0.8739-0.752 1.4284-1.842 1.4284-1.081 0-1.767-0.5733-1.767-1.4472zm4.025 0h0.845c0 0.4699 0.357 0.7518 0.94 0.7518 0.62 0 0.977-0.2538 0.977-0.6766 0-0.3101-0.15-0.4981-0.629-0.6202l-0.808-0.188c-0.818-0.1973-1.203-0.6014-1.203-1.278 0-0.8457 0.714-1.3814 1.729-1.3814 1.005 0 1.663 0.5639 1.682 1.4378h-0.846c-0.019-0.4605-0.329-0.7518-0.864-0.7518-0.555 0-0.865 0.2444-0.865 0.6672 0 0.3101 0.226 0.5169 0.677 0.6296l0.808 0.1974c0.78 0.1879 1.165 0.545 1.165 1.231 0 0.8739-0.752 1.4284-1.842 1.4284-1.08 0-1.766-0.5733-1.766-1.4472zm4.832-4.3509c-0.32 0-0.583-0.2631-0.583-0.5826 0-0.3289 0.263-0.5826 0.583-0.5826 0.319 0 0.583 0.2537 0.583 0.5826 0 0.3195-0.264 0.5826-0.583 0.5826zm-0.432 5.6853v-4.5952h0.883v4.5952zm1.602-1.3344h0.845c0 0.4699 0.357 0.7518 0.94 0.7518 0.62 0 0.977-0.2538 0.977-0.6766 0-0.3101-0.15-0.4981-0.629-0.6202l-0.808-0.188c-0.818-0.1973-1.203-0.6014-1.203-1.278 0-0.8457 0.714-1.3814 1.729-1.3814 1.005 0 1.663 0.5639 1.682 1.4378h-0.846c-0.019-0.4605-0.329-0.7518-0.864-0.7518-0.555 0-0.865 0.2444-0.865 0.6672 0 0.3101 0.226 0.5169 0.677 0.6296l0.808 0.1974c0.78 0.1879 1.165 0.545 1.165 1.231 0 0.8739-0.752 1.4284-1.842 1.4284-1.08 0-1.766-0.5733-1.766-1.4472zm5.697 1.3344h-0.884v-3.8528h-0.902v-0.7424h0.902v-1.4378h0.884v1.4378h0.902v0.7424h-0.902zm2.795 0.1128c-0.987 0-1.569-0.5545-1.569-1.3908 0-0.8458 0.629-1.372 1.71-1.4566l1.447-0.1127v-0.1316c0-0.7706-0.46-1.0431-1.08-1.0431-0.743 0-1.166 0.3289-1.166 0.8834h-0.77c0-0.9586 0.789-1.5882 1.973-1.5882 1.137 0 1.908 0.6015 1.908 1.8419v2.8849h-0.752l-0.094-0.7424c-0.235 0.5263-0.864 0.8552-1.607 0.8552zm0.254-0.686c0.836 0 1.344-0.5451 1.344-1.4096v-0.2443l-1.175 0.0939c-0.78 0.0752-1.099 0.3759-1.099 0.827 0 0.4886 0.357 0.733 0.93 0.733zm4.118 0.5732h-0.884v-4.5952h0.799l0.094 0.7048c0.291-0.5263 0.874-0.8364 1.522-0.8364 1.213 0 1.767 0.7424 1.767 1.9171v2.8097h-0.883v-2.6124c0-0.9303-0.433-1.3062-1.109-1.3062-0.827 0-1.306 0.592-1.306 1.4847zm5.63 0h-0.883v-3.8528h-0.902v-0.7424h0.902v-1.4378h0.883v1.4378h0.902v0.7424h-0.902zm1.88 0.1128c-0.366 0-0.676-0.3008-0.676-0.6578 0-0.3665 0.31-0.6672 0.676-0.6672 0.358 0 0.668 0.3007 0.668 0.6672 0 0.357-0.31 0.6578-0.668 0.6578zm5.205-6.9069v6.7941h-0.921v-6.7941zm4.971 6.9069c-0.987 0-1.569-0.5545-1.569-1.3908 0-0.8458 0.629-1.372 1.71-1.4566l1.447-0.1127v-0.1316c0-0.7706-0.46-1.0431-1.08-1.0431-0.743 0-1.166 0.3289-1.166 0.8834h-0.77c0-0.9586 0.789-1.5882 1.973-1.5882 1.137 0 1.908 0.6015 1.908 1.8419v2.8849h-0.752l-0.094-0.7424c-0.235 0.5263-0.865 0.8552-1.607 0.8552zm0.254-0.686c0.836 0 1.344-0.5451 1.344-1.4096v-0.2443l-1.175 0.0939c-0.78 0.0752-1.099 0.3759-1.099 0.827 0 0.4886 0.357 0.733 0.93 0.733zm4.117 0.5732h-0.883v-4.5952h0.789l0.085 0.6014c0.235-0.4323 0.724-0.733 1.372-0.733 0.714 0 1.222 0.3571 1.457 0.9304 0.216-0.5733 0.77-0.9304 1.484-0.9304 1.053 0 1.692 0.6578 1.692 1.7197v3.0071h-0.865v-2.791c0-0.7235-0.404-1.137-1.024-1.137-0.667 0-1.109 0.4699-1.109 1.2028v2.7252h-0.874v-2.8004c0-0.7235-0.394-1.1182-1.015-1.1182-0.667 0-1.109 0.4605-1.109 1.1934zm10.297-0.0094h-0.883v-6.9069h0.883v3.0259c0.292-0.4981 0.846-0.8364 1.56-0.8364 1.175 0 1.739 0.7424 1.739 1.9171v2.8097h-0.884v-2.6124c0-0.9303-0.441-1.3062-1.099-1.3062-0.855 0-1.316 0.6202-1.316 1.4096zm6.317 0.1222c-1.353 0-2.284-0.9773-2.284-2.4057 0-1.4378 0.912-2.4339 2.246-2.4339 1.307 0 2.162 0.9022 2.162 2.2647v0.3289l-3.552 0.0094c0.065 0.9679 0.573 1.5036 1.447 1.5036 0.686 0 1.137-0.2819 1.287-0.8082h0.827c-0.225 0.9867-0.996 1.5412-2.133 1.5412zm-0.038-4.0972c-0.77 0-1.259 0.4605-1.372 1.2686h2.65c0-0.7611-0.498-1.2686-1.278-1.2686zm5.592-0.6484v0.8082h-0.395c-0.836 0-1.353 0.5074-1.353 1.3907v2.4339h-0.884v-4.5858h0.827l0.057 0.6954c0.188-0.4793 0.648-0.7988 1.278-0.7988 0.16 0 0.291 0.0188 0.47 0.0564zm2.458 4.7456c-1.353 0-2.284-0.9773-2.284-2.4057 0-1.4378 0.912-2.4339 2.246-2.4339 1.306 0 2.162 0.9022 2.162 2.2647v0.3289l-3.553 0.0094c0.066 0.9679 0.574 1.5036 1.448 1.5036 0.686 0 1.137-0.2819 1.287-0.8082h0.827c-0.226 0.9867-0.996 1.5412-2.133 1.5412zm-0.038-4.0972c-0.77 0-1.259 0.4605-1.372 1.2686h2.65c0-0.7611-0.498-1.2686-1.278-1.2686zm6.639 3.9844h-0.884v-3.8528h-0.902v-0.7424h0.902v-1.4378h0.884v1.4378h0.902v0.7424h-0.902zm1.16-2.3023c0-1.419 1.015-2.4151 2.396-2.4151 1.372 0 2.387 0.9961 2.387 2.4151s-1.015 2.4151-2.387 2.4151c-1.381 0-2.396-0.9961-2.396-2.4151zm0.893 0c0 0.9585 0.61 1.6257 1.503 1.6257 0.884 0 1.504-0.6672 1.504-1.6257s-0.62-1.6257-1.504-1.6257c-0.893 0-1.503 0.6672-1.503 1.6257zm-125.26 15.415c-0.987 0-1.57-0.554-1.57-1.3905 0-0.8458 0.63-1.372 1.711-1.4566l1.447-0.1127v-0.1316c0-0.7706-0.461-1.0431-1.081-1.0431-0.742 0-1.165 0.3289-1.165 0.8834h-0.771c0-0.9586 0.79-1.5882 1.974-1.5882 1.137 0 1.907 0.6015 1.907 1.8419v2.8844h-0.752l-0.094-0.7419c-0.234 0.5259-0.864 0.8549-1.606 0.8549zm0.253-0.686c0.837 0 1.344-0.5448 1.344-1.4093v-0.2443l-1.175 0.0939c-0.78 0.0752-1.099 0.3759-1.099 0.827 0 0.4886 0.357 0.7327 0.93 0.7327zm2.859-0.7609h0.845c0 0.4699 0.358 0.7519 0.94 0.7519 0.62 0 0.977-0.2539 0.977-0.6767 0-0.3101-0.15-0.4981-0.629-0.6202l-0.808-0.188c-0.818-0.1973-1.203-0.6014-1.203-1.278 0-0.8457 0.714-1.3814 1.729-1.3814 1.005 0 1.663 0.5639 1.682 1.4378h-0.846c-0.018-0.4605-0.329-0.7518-0.864-0.7518-0.555 0-0.865 0.2444-0.865 0.6672 0 0.3101 0.226 0.5169 0.677 0.6296l0.808 0.1974c0.78 0.1879 1.165 0.545 1.165 1.231 0 0.8741-0.752 1.4281-1.842 1.4281-1.08 0-1.766-0.573-1.766-1.4469zm4.024 0h0.846c0 0.4699 0.357 0.7519 0.939 0.7519 0.621 0 0.978-0.2539 0.978-0.6767 0-0.3101-0.151-0.4981-0.63-0.6202l-0.808-0.188c-0.818-0.1973-1.203-0.6014-1.203-1.278 0-0.8457 0.714-1.3814 1.729-1.3814 1.006 0 1.663 0.5639 1.682 1.4378h-0.845c-0.019-0.4605-0.329-0.7518-0.865-0.7518-0.554 0-0.865 0.2444-0.865 0.6672 0 0.3101 0.226 0.5169 0.677 0.6296l0.808 0.1974c0.78 0.1879 1.165 0.545 1.165 1.231 0 0.8741-0.751 1.4281-1.841 1.4281-1.081 0-1.767-0.573-1.767-1.4469zm4.832-4.3509c-0.319 0-0.582-0.2631-0.582-0.5826 0-0.3289 0.263-0.5826 0.582-0.5826 0.32 0 0.583 0.2537 0.583 0.5826 0 0.3195-0.263 0.5826-0.583 0.5826zm-0.432 5.6848v-4.5947h0.883v4.5947zm1.602-1.3339h0.846c0 0.4699 0.357 0.7519 0.939 0.7519 0.621 0 0.978-0.2539 0.978-0.6767 0-0.3101-0.151-0.4981-0.63-0.6202l-0.808-0.188c-0.818-0.1973-1.203-0.6014-1.203-1.278 0-0.8457 0.714-1.3814 1.729-1.3814 1.006 0 1.664 0.5639 1.682 1.4378h-0.845c-0.019-0.4605-0.329-0.7518-0.865-0.7518-0.554 0-0.864 0.2444-0.864 0.6672 0 0.3101 0.225 0.5169 0.676 0.6296l0.808 0.1974c0.78 0.1879 1.166 0.545 1.166 1.231 0 0.8741-0.752 1.4281-1.842 1.4281-1.081 0-1.767-0.573-1.767-1.4469zm5.697 1.3339h-0.883v-3.8523h-0.903v-0.7424h0.903v-1.4378h0.883v1.4378h0.902v0.7424h-0.902zm3.447 2.058v-0.723h0.592c0.423 0 0.761-0.066 0.977-0.649l0.16-0.441-1.851-4.8397h0.93l1.334 3.7025 1.363-3.7025h0.911l-2.17 5.6287c-0.31 0.79-0.771 1.118-1.476 1.118-0.291 0-0.535-0.037-0.77-0.094zm4.459-4.3598c0-1.419 1.015-2.4151 2.396-2.4151 1.372 0 2.387 0.9961 2.387 2.4151s-1.015 2.4148-2.387 2.4148c-1.381 0-2.396-0.9958-2.396-2.4148zm0.892 0c0 0.9585 0.611 1.6257 1.504 1.6257 0.883 0 1.503-0.6672 1.503-1.6257s-0.62-1.6257-1.503-1.6257c-0.893 0-1.504 0.6672-1.504 1.6257zm7.747-2.2929h0.874v4.5947h-0.79l-0.094-0.6949c-0.263 0.4789-0.874 0.8079-1.55 0.8079-1.071 0-1.673-0.7233-1.673-1.851v-2.8567h0.883v2.5654c0 0.9867 0.423 1.3626 1.1 1.3626 0.808 0 1.25-0.5168 1.25-1.5035zm5.336 4.5947-1.504-4.5947h0.912l0.761 2.3869c0.103 0.3383 0.197 0.686 0.282 1.09 0.075-0.404 0.197-0.7893 0.3-1.09l0.771-2.3869h0.902l0.761 2.3869c0.075 0.2255 0.226 0.7611 0.301 1.09 0.075-0.3665 0.16-0.686 0.291-1.09l0.771-2.3869h0.921l-1.57 4.5947h-0.836l-0.799-2.4616c-0.15-0.4604-0.244-0.8175-0.291-1.0712-0.047 0.2255-0.132 0.5262-0.301 1.0806l-0.798 2.4522zm6.47-5.6848c-0.319 0-0.582-0.2631-0.582-0.5826 0-0.3289 0.263-0.5826 0.582-0.5826 0.32 0 0.583 0.2537 0.583 0.5826 0 0.3195-0.263 0.5826-0.583 0.5826zm-0.432 5.6848v-4.5947h0.883v4.5947zm3.275 0h-0.884v-3.8523h-0.902v-0.7424h0.902v-1.4378h0.884v1.4378h0.902v0.7424h-0.902zm2.39-9e-3h-0.883v-6.9068h0.883v3.0259c0.291-0.4981 0.846-0.8364 1.56-0.8364 1.174 0 1.738 0.7424 1.738 1.9171v2.8092h-0.883v-2.6119c0-0.9303-0.442-1.3062-1.1-1.3062-0.855 0-1.315 0.6202-1.315 1.4096zm8.059 0.122c-0.987 0-1.569-0.554-1.569-1.3905 0-0.8458 0.629-1.372 1.71-1.4566l1.447-0.1127v-0.1316c0-0.7706-0.46-1.0431-1.08-1.0431-0.743 0-1.166 0.3289-1.166 0.8834h-0.77c0-0.9586 0.789-1.5882 1.973-1.5882 1.137 0 1.908 0.6015 1.908 1.8419v2.8844h-0.752l-0.094-0.7419c-0.235 0.5259-0.864 0.8549-1.607 0.8549zm0.254-0.686c0.836 0 1.344-0.5448 1.344-1.4093v-0.2443l-1.175 0.0939c-0.78 0.0752-1.099 0.3759-1.099 0.827 0 0.4886 0.357 0.7327 0.93 0.7327zm4.118 0.573h-0.884v-4.5947h0.799l0.094 0.7048c0.291-0.5263 0.874-0.8364 1.522-0.8364 1.212 0 1.767 0.7424 1.767 1.9171v2.8092h-0.883v-2.6119c0-0.9303-0.433-1.3062-1.109-1.3062-0.827 0-1.306 0.592-1.306 1.4847zm3.8 2.058v-0.723h0.592c0.423 0 0.761-0.066 0.977-0.649l0.16-0.441-1.851-4.8397h0.93l1.335 3.7025 1.362-3.7025h0.912l-2.171 5.6287c-0.31 0.79-0.771 1.118-1.475 1.118-0.292 0-0.536-0.037-0.771-0.094zm7.015-4.388c0-1.4096 0.827-2.3963 2.142-2.3963 0.724 0 1.354 0.3289 1.654 0.9585l0.075-0.8269h0.79v6.6527h-0.874v-2.8093c-0.31 0.5643-0.921 0.8743-1.654 0.8743-1.353 0-2.133-1.0528-2.133-2.453zm0.893 0.0376c0 0.9397 0.526 1.6163 1.428 1.6163s1.456-0.6766 1.456-1.6163c0-0.9585-0.554-1.6257-1.456-1.6257s-1.428 0.6766-1.428 1.6257zm8.03-2.3023h0.874v4.5947h-0.789l-0.094-0.6949c-0.263 0.4789-0.874 0.8079-1.551 0.8079-1.071 0-1.672-0.7233-1.672-1.851v-2.8567h0.883v2.5654c0 0.9867 0.423 1.3626 1.1 1.3626 0.808 0 1.249-0.5168 1.249-1.5035zm3.859 4.7077c-1.353 0-2.283-0.977-2.283-2.4054 0-1.4378 0.911-2.4339 2.245-2.4339 1.307 0 2.162 0.9022 2.162 2.2647v0.3289l-3.552 0.0094c0.065 0.9679 0.573 1.5036 1.447 1.5036 0.686 0 1.137-0.2819 1.287-0.8082h0.827c-0.225 0.9869-0.996 1.5409-2.133 1.5409zm-0.038-4.0969c-0.77 0-1.259 0.4605-1.372 1.2686h2.65c0-0.7611-0.498-1.2686-1.278-1.2686zm2.585 2.65h0.845c0 0.4699 0.357 0.7519 0.94 0.7519 0.62 0 0.977-0.2539 0.977-0.6767 0-0.3101-0.15-0.4981-0.629-0.6202l-0.808-0.188c-0.818-0.1973-1.203-0.6014-1.203-1.278 0-0.8457 0.714-1.3814 1.729-1.3814 1.005 0 1.663 0.5639 1.682 1.4378h-0.846c-0.019-0.4605-0.329-0.7518-0.864-0.7518-0.555 0-0.865 0.2444-0.865 0.6672 0 0.3101 0.226 0.5169 0.677 0.6296l0.808 0.1974c0.78 0.1879 1.165 0.545 1.165 1.231 0 0.8741-0.752 1.4281-1.842 1.4281-1.08 0-1.766-0.573-1.766-1.4469zm5.696 1.3339h-0.883v-3.8523h-0.902v-0.7424h0.902v-1.4378h0.883v1.4378h0.903v0.7424h-0.903zm1.94-5.6848c-0.32 0-0.583-0.2631-0.583-0.5826 0-0.3289 0.263-0.5826 0.583-0.5826 0.319 0 0.582 0.2537 0.582 0.5826 0 0.3195-0.263 0.5826-0.582 0.5826zm-0.433 5.6848v-4.5947h0.884v4.5947zm1.677-2.3018c0-1.419 1.015-2.4151 2.397-2.4151 1.372 0 2.387 0.9961 2.387 2.4151s-1.015 2.4148-2.387 2.4148c-1.382 0-2.397-0.9958-2.397-2.4148zm0.893 0c0 0.9585 0.611 1.6257 1.504 1.6257 0.883 0 1.503-0.6672 1.503-1.6257s-0.62-1.6257-1.503-1.6257c-0.893 0-1.504 0.6672-1.504 1.6257zm5.564 2.3018h-0.883v-4.5947h0.798l0.094 0.7048c0.292-0.5263 0.874-0.8364 1.523-0.8364 1.212 0 1.766 0.7424 1.766 1.9171v2.8092h-0.883v-2.6119c0-0.9303-0.432-1.3062-1.109-1.3062-0.827 0-1.306 0.592-1.306 1.4847zm3.903-1.3339h0.846c0 0.4699 0.357 0.7519 0.939 0.7519 0.62 0 0.978-0.2539 0.978-0.6767 0-0.3101-0.151-0.4981-0.63-0.6202l-0.808-0.188c-0.818-0.1973-1.203-0.6014-1.203-1.278 0-0.8457 0.714-1.3814 1.729-1.3814 1.006 0 1.663 0.5639 1.682 1.4378h-0.846c-0.018-0.4605-0.329-0.7518-0.864-0.7518-0.555 0-0.865 0.2444-0.865 0.6672 0 0.3101 0.226 0.5169 0.677 0.6296l0.808 0.1974c0.78 0.1879 1.165 0.545 1.165 1.231 0 0.8741-0.751 1.4281-1.842 1.4281-1.08 0-1.766-0.573-1.766-1.4469zm6.34 3.3919v-0.723h0.592c0.423 0 0.761-0.066 0.977-0.649l0.16-0.441-1.851-4.8397h0.93l1.334 3.7025 1.363-3.7025h0.911l-2.17 5.6287c-0.31 0.79-0.771 1.118-1.476 1.118-0.291 0-0.535-0.037-0.77-0.094zm4.459-4.3598c0-1.419 1.015-2.4151 2.396-2.4151 1.372 0 2.387 0.9961 2.387 2.4151s-1.015 2.4148-2.387 2.4148c-1.381 0-2.396-0.9958-2.396-2.4148zm0.892 0c0 0.9585 0.611 1.6257 1.504 1.6257 0.883 0 1.504-0.6672 1.504-1.6257s-0.621-1.6257-1.504-1.6257c-0.893 0-1.504 0.6672-1.504 1.6257zm7.747-2.2929h0.874v4.5947h-0.79l-0.094-0.6949c-0.263 0.4789-0.874 0.8079-1.55 0.8079-1.071 0-1.673-0.7233-1.673-1.851v-2.8567h0.884v2.5654c0 0.9867 0.422 1.3626 1.099 1.3626 0.808 0 1.25-0.5168 1.25-1.5035zm-130.13 17.595h-0.883v-4.595h0.789l0.085 0.602c0.235-0.433 0.723-0.733 1.372-0.733 0.714 0 1.221 0.357 1.456 0.93 0.216-0.573 0.771-0.93 1.485-0.93 1.052 0 1.691 0.658 1.691 1.719v3.007h-0.864v-2.79c0-0.724-0.404-1.138-1.024-1.138-0.668 0-1.109 0.47-1.109 1.203v2.725h-0.874v-2.8c0-0.723-0.395-1.118-1.015-1.118-0.667 0-1.109 0.46-1.109 1.193zm8.376 0.113c-0.987 0-1.569-0.554-1.569-1.391 0-0.845 0.629-1.371 1.71-1.456l1.447-0.113v-0.131c0-0.771-0.461-1.043-1.081-1.043-0.742 0-1.165 0.328-1.165 0.883h-0.771c0-0.959 0.79-1.588 1.974-1.588 1.137 0 1.907 0.601 1.907 1.842v2.884h-0.751l-0.094-0.742c-0.235 0.526-0.865 0.855-1.607 0.855zm0.254-0.686c0.836 0 1.343-0.545 1.343-1.409v-0.245l-1.174 0.094c-0.78 0.076-1.1 0.376-1.1 0.827 0 0.489 0.357 0.733 0.931 0.733zm2.682 2.631v-0.723h0.592c0.423 0 0.761-0.066 0.977-0.649l0.16-0.441-1.851-4.84h0.93l1.335 3.703 1.362-3.703h0.912l-2.171 5.629c-0.31 0.79-0.771 1.118-1.475 1.118-0.292 0-0.536-0.037-0.771-0.094zm8.199-2.067h-0.883v-6.907h0.883v3.026c0.291-0.498 0.846-0.836 1.56-0.836 1.174 0 1.738 0.742 1.738 1.917v2.809h-0.883v-2.612c0-0.93-0.442-1.306-1.099-1.306-0.856 0-1.316 0.62-1.316 1.409zm5.678 0.122c-0.987 0-1.57-0.554-1.57-1.391 0-0.845 0.63-1.371 1.711-1.456l1.447-0.113v-0.131c0-0.771-0.461-1.043-1.081-1.043-0.742 0-1.165 0.328-1.165 0.883h-0.771c0-0.959 0.79-1.588 1.974-1.588 1.137 0 1.907 0.601 1.907 1.842v2.884h-0.752l-0.093-0.742c-0.235 0.526-0.865 0.855-1.607 0.855zm0.253-0.686c0.837 0 1.344-0.545 1.344-1.409v-0.245l-1.175 0.094c-0.779 0.076-1.099 0.376-1.099 0.827 0 0.489 0.357 0.733 0.93 0.733zm4.338 0.573-1.851-4.595h0.94l1.005 2.566c0.16 0.432 0.292 0.817 0.367 1.099 0.075-0.301 0.225-0.695 0.385-1.099l1.025-2.566h0.92l-1.917 4.595zm5.078 0.113c-1.353 0-2.283-0.977-2.283-2.405 0-1.438 0.911-2.434 2.245-2.434 1.307 0 2.162 0.902 2.162 2.264v0.329l-3.552 0.01c0.065 0.968 0.573 1.503 1.447 1.503 0.686 0 1.137-0.282 1.287-0.808h0.827c-0.225 0.987-0.996 1.541-2.133 1.541zm-0.038-4.097c-0.77 0-1.259 0.461-1.372 1.269h2.65c0-0.761-0.498-1.269-1.278-1.269zm7.973-0.648v0.808h-0.394c-0.837 0-1.354 0.507-1.354 1.391v2.433h-0.883v-4.585h0.827l0.056 0.695c0.188-0.479 0.649-0.799 1.278-0.799 0.16 0 0.292 0.019 0.47 0.057zm2.458 4.745c-1.353 0-2.283-0.977-2.283-2.405 0-1.438 0.911-2.434 2.246-2.434 1.306 0 2.161 0.902 2.161 2.264v0.329l-3.552 0.01c0.066 0.968 0.573 1.503 1.447 1.503 0.686 0 1.137-0.282 1.288-0.808h0.827c-0.226 0.987-0.997 1.541-2.134 1.541zm-0.037-4.097c-0.771 0-1.259 0.461-1.372 1.269h2.65c0-0.761-0.498-1.269-1.278-1.269zm2.669 1.569c0-1.296 0.836-2.311 2.17-2.311 0.743 0 1.316 0.338 1.607 0.911l0.066-0.78h0.789v4.408c0 1.447-0.892 2.368-2.302 2.368-1.25 0-2.105-0.705-2.274-1.87h0.883c0.113 0.676 0.62 1.071 1.391 1.071 0.865 0 1.428-0.564 1.428-1.438v-0.921c-0.3 0.536-0.902 0.855-1.625 0.855-1.307 0-2.133-1.005-2.133-2.293zm0.883-0.018c0 0.864 0.535 1.541 1.4 1.541 0.893 0 1.438-0.639 1.438-1.541 0-0.884-0.526-1.523-1.429-1.523-0.883 0-1.409 0.677-1.409 1.523zm6.18 2.546c-0.987 0-1.569-0.554-1.569-1.391 0-0.845 0.629-1.371 1.71-1.456l1.447-0.113v-0.131c0-0.771-0.46-1.043-1.081-1.043-0.742 0-1.165 0.328-1.165 0.883h-0.77c0-0.959 0.789-1.588 1.973-1.588 1.137 0 1.908 0.601 1.908 1.842v2.884h-0.752l-0.094-0.742c-0.235 0.526-0.865 0.855-1.607 0.855zm0.254-0.686c0.836 0 1.343-0.545 1.343-1.409v-0.245l-1.174 0.094c-0.78 0.076-1.1 0.376-1.1 0.827 0 0.489 0.357 0.733 0.931 0.733zm5.865-4.059v0.808h-0.395c-0.836 0-1.353 0.507-1.353 1.391v2.433h-0.883v-4.585h0.827l0.056 0.695c0.188-0.479 0.649-0.799 1.278-0.799 0.16 0 0.292 0.019 0.47 0.057zm2.317 4.745c-1.334 0-2.142-0.996-2.142-2.396 0-1.41 0.817-2.443 2.18-2.443 0.705 0 1.297 0.31 1.607 0.874v-3.064h0.874v6.916h-0.79l-0.075-0.836c-0.3 0.63-0.921 0.949-1.654 0.949zm0.179-0.798c0.902 0 1.456-0.668 1.456-1.626 0-0.94-0.554-1.617-1.456-1.617s-1.428 0.677-1.428 1.617c0 0.949 0.526 1.626 1.428 1.626zm3.858-5c-0.319 0-0.582-0.263-0.582-0.582 0-0.329 0.263-0.583 0.582-0.583 0.32 0 0.583 0.254 0.583 0.583 0 0.319-0.263 0.582-0.583 0.582zm-0.432 5.685v-4.595h0.883v4.595zm2.861 0h-0.883v-4.595h0.799l0.094 0.705c0.291-0.526 0.874-0.836 1.522-0.836 1.212 0 1.767 0.742 1.767 1.917v2.809h-0.884v-2.612c0-0.93-0.432-1.306-1.109-1.306-0.826 0-1.306 0.592-1.306 1.485zm4.043-2.415c0-1.296 0.836-2.311 2.171-2.311 0.742 0 1.315 0.338 1.607 0.911l0.065-0.78h0.79v4.408c0 1.447-0.893 2.368-2.303 2.368-1.249 0-2.105-0.705-2.274-1.87h0.884c0.112 0.676 0.62 1.071 1.39 1.071 0.865 0 1.429-0.564 1.429-1.438v-0.921c-0.301 0.536-0.902 0.855-1.626 0.855-1.306 0-2.133-1.005-2.133-2.293zm0.883-0.018c0 0.864 0.536 1.541 1.4 1.541 0.893 0 1.438-0.639 1.438-1.541 0-0.884-0.526-1.523-1.428-1.523-0.884 0-1.41 0.677-1.41 1.523zm6.776 4.491v-0.723h0.592c0.423 0 0.762-0.066 0.978-0.649l0.159-0.441-1.851-4.84h0.931l1.334 3.703 1.363-3.703h0.911l-2.171 5.629c-0.31 0.79-0.77 1.118-1.475 1.118-0.291 0-0.536-0.037-0.771-0.094zm4.459-4.36c0-1.419 1.015-2.415 2.397-2.415 1.372 0 2.386 0.996 2.386 2.415s-1.014 2.415-2.386 2.415c-1.382 0-2.397-0.996-2.397-2.415zm0.893 0c0 0.959 0.611 1.626 1.504 1.626 0.883 0 1.503-0.667 1.503-1.626 0-0.958-0.62-1.626-1.503-1.626-0.893 0-1.504 0.668-1.504 1.626zm7.746-2.293h0.874v4.595h-0.789l-0.094-0.695c-0.263 0.479-0.874 0.808-1.551 0.808-1.071 0-1.672-0.723-1.672-1.851v-2.857h0.883v2.566c0 0.986 0.423 1.362 1.1 1.362 0.808 0 1.249-0.517 1.249-1.503zm4.599-0.037v0.808h-0.394c-0.837 0-1.354 0.507-1.354 1.391v2.433h-0.883v-4.585h0.827l0.056 0.695c0.188-0.479 0.649-0.799 1.278-0.799 0.16 0 0.292 0.019 0.47 0.057zm6.199 0.037h0.873v4.595h-0.789l-0.094-0.695c-0.263 0.479-0.874 0.808-1.55 0.808-1.072 0-1.673-0.723-1.673-1.851v-2.857h0.883v2.566c0 0.986 0.423 1.362 1.1 1.362 0.808 0 1.25-0.517 1.25-1.503zm1.967 6.653v-6.653h0.799l0.066 0.827c0.31-0.629 0.93-0.958 1.663-0.958 1.316 0 2.133 0.986 2.133 2.396 0 1.4-0.77 2.453-2.133 2.453-0.733 0-1.344-0.31-1.645-0.874v2.809zm0.893-4.35c0 0.939 0.545 1.616 1.447 1.616s1.438-0.677 1.438-1.616c0-0.95-0.536-1.626-1.438-1.626s-1.447 0.667-1.447 1.626zm5.456 2.292h-0.883v-6.916h0.883zm0.812-2.302c0-1.419 1.014-2.415 2.396-2.415 1.372 0 2.387 0.996 2.387 2.415s-1.015 2.415-2.387 2.415c-1.382 0-2.396-0.996-2.396-2.415zm0.892 0c0 0.959 0.611 1.626 1.504 1.626 0.883 0 1.503-0.667 1.503-1.626 0-0.958-0.62-1.626-1.503-1.626-0.893 0-1.504 0.668-1.504 1.626zm6.024 2.415c-0.986 0-1.569-0.554-1.569-1.391 0-0.845 0.63-1.371 1.71-1.456l1.448-0.113v-0.131c0-0.771-0.461-1.043-1.081-1.043-0.743 0-1.165 0.328-1.165 0.883h-0.771c0-0.959 0.789-1.588 1.973-1.588 1.137 0 1.908 0.601 1.908 1.842v2.884h-0.752l-0.094-0.742c-0.235 0.526-0.864 0.855-1.607 0.855zm0.254-0.686c0.836 0 1.344-0.545 1.344-1.409v-0.245l-1.175 0.094c-0.78 0.076-1.099 0.376-1.099 0.827 0 0.489 0.357 0.733 0.93 0.733zm5.076 0.686c-1.334 0-2.142-0.996-2.142-2.396 0-1.41 0.817-2.443 2.18-2.443 0.705 0 1.297 0.31 1.607 0.874v-3.064h0.874v6.916h-0.79l-0.075-0.836c-0.301 0.63-0.921 0.949-1.654 0.949zm0.179-0.798c0.902 0 1.456-0.668 1.456-1.626 0-0.94-0.554-1.617-1.456-1.617s-1.429 0.677-1.429 1.617c0 0.949 0.527 1.626 1.429 1.626zm5.409 0.798c-1.353 0-2.284-0.977-2.284-2.405 0-1.438 0.912-2.434 2.246-2.434 1.306 0 2.162 0.902 2.162 2.264v0.329l-3.552 0.01c0.065 0.968 0.573 1.503 1.447 1.503 0.686 0 1.137-0.282 1.287-0.808h0.827c-0.226 0.987-0.996 1.541-2.133 1.541zm-0.038-4.097c-0.77 0-1.259 0.461-1.372 1.269h2.65c0-0.761-0.498-1.269-1.278-1.269zm4.802 4.097c-1.334 0-2.142-0.996-2.142-2.396 0-1.41 0.817-2.443 2.18-2.443 0.705 0 1.297 0.31 1.607 0.874v-3.064h0.874v6.916h-0.79l-0.075-0.836c-0.301 0.63-0.921 0.949-1.654 0.949zm0.179-0.798c0.902 0 1.456-0.668 1.456-1.626 0-0.94-0.554-1.617-1.456-1.617s-1.429 0.677-1.429 1.617c0 0.949 0.527 1.626 1.429 1.626zm-136.39 13.798c-1.335 0-2.143-0.996-2.143-2.396 0-1.41 0.818-2.443 2.18-2.443 0.705 0 1.297 0.31 1.607 0.874v-3.064h0.874v6.916h-0.789l-0.075-0.836c-0.301 0.63-0.921 0.949-1.654 0.949zm0.178-0.798c0.902 0 1.457-0.668 1.457-1.626 0-0.94-0.555-1.617-1.457-1.617s-1.428 0.677-1.428 1.617c0 0.949 0.526 1.626 1.428 1.626zm3.126-1.617c0-1.419 1.015-2.415 2.396-2.415 1.372 0 2.387 0.996 2.387 2.415s-1.015 2.415-2.387 2.415c-1.381 0-2.396-0.996-2.396-2.415zm0.892 0c0 0.959 0.611 1.626 1.504 1.626 0.883 0 1.504-0.667 1.504-1.626 0-0.958-0.621-1.626-1.504-1.626-0.893 0-1.504 0.668-1.504 1.626zm4.38 0.01c0-1.438 0.912-2.434 2.255-2.434 1.156 0 1.964 0.658 2.124 1.682h-0.883c-0.151-0.583-0.62-0.893-1.212-0.893-0.837 0-1.41 0.639-1.41 1.635 0 0.987 0.536 1.626 1.372 1.626 0.63 0 1.099-0.329 1.259-0.874h0.884c-0.179 0.996-1.034 1.663-2.143 1.663-1.353 0-2.246-0.958-2.246-2.405zm8.309-2.303h0.874v4.595h-0.79l-0.094-0.695c-0.263 0.479-0.874 0.808-1.55 0.808-1.071 0-1.673-0.723-1.673-1.851v-2.857h0.884v2.566c0 0.986 0.422 1.362 1.099 1.362 0.808 0 1.25-0.517 1.25-1.503zm2.851 4.595h-0.884v-4.595h0.79l0.084 0.602c0.235-0.433 0.724-0.733 1.372-0.733 0.714 0 1.222 0.357 1.457 0.93 0.216-0.573 0.77-0.93 1.485-0.93 1.052 0 1.691 0.658 1.691 1.719v3.007h-0.864v-2.79c0-0.724-0.405-1.138-1.025-1.138-0.667 0-1.109 0.47-1.109 1.203v2.725h-0.874v-2.8c0-0.723-0.394-1.118-1.014-1.118-0.668 0-1.109 0.46-1.109 1.193zm9.014 0.113c-1.353 0-2.283-0.977-2.283-2.405 0-1.438 0.911-2.434 2.246-2.434 1.306 0 2.161 0.902 2.161 2.264v0.329l-3.552 0.01c0.066 0.968 0.573 1.503 1.447 1.503 0.686 0 1.137-0.282 1.288-0.808h0.827c-0.226 0.987-0.997 1.541-2.134 1.541zm-0.037-4.097c-0.771 0-1.259 0.461-1.372 1.269h2.65c0-0.761-0.498-1.269-1.278-1.269zm3.843 3.984h-0.883v-4.595h0.799l0.094 0.705c0.291-0.526 0.874-0.836 1.522-0.836 1.212 0 1.767 0.742 1.767 1.917v2.809h-0.884v-2.612c0-0.93-0.432-1.306-1.109-1.306-0.827 0-1.306 0.592-1.306 1.485zm5.631 0h-0.883v-3.852h-0.903v-0.743h0.903v-1.437h0.883v1.437h0.902v0.743h-0.902zm1.88 0.113c-0.366 0-0.676-0.3-0.676-0.658 0-0.366 0.31-0.667 0.676-0.667 0.357 0 0.667 0.301 0.667 0.667 0 0.358-0.31 0.658-0.667 0.658z" fill="#fff"/>
</g>
<rect x="94.442" y=".14683" width="235.81" height="390.27" rx="17.975" stroke="#fff" stroke-opacity=".2" stroke-width=".29366"/>
</g>
<g filter="url(#b)">
<ellipse cx="212.59" cy="296.99" rx="251.59" ry="96.012" fill="#F8F9FF"/>
</g>
<defs>
<filter id="c" x="77.849" y="-4.7684e-7" width="265.47" height="404.66" color-interpolation-filters="sRGB" filterUnits="userSpaceOnUse">
<feFlood flood-opacity="0" result="BackgroundImageFix"/>
<feColorMatrix in="SourceAlpha" result="hardAlpha" values="0 0 0 0 0 0 0 0 0 0 0 0 0 0 0 0 0 0 127 0"/>
<feMorphology in="SourceAlpha" radius="2.34928" result="effect1_dropShadow_3562_18728"/>
<feOffset dy="4.69856"/>
<feGaussianBlur stdDeviation="2.34928"/>
<feColorMatrix values="0 0 0 0 0.0627451 0 0 0 0 0.0941176 0 0 0 0 0.156863 0 0 0 0.04 0"/>
<feBlend in2="BackgroundImageFix" result="effect1_dropShadow_3562_18728"/>
<feColorMatrix in="SourceAlpha" result="hardAlpha" values="0 0 0 0 0 0 0 0 0 0 0 0 0 0 0 0 0 0 127 0"/>
<feMorphology in="SourceAlpha" radius="2.34928" result="effect2_dropShadow_3562_18728"/>
<feOffset dy="11.7464"/>
<feGaussianBlur stdDeviation="7.04784"/>
<feColorMatrix values="0 0 0 0 0.0627451 0 0 0 0 0.0941176 0 0 0 0 0.156863 0 0 0 0.1 0"/>
<feBlend in2="effect1_dropShadow_3562_18728" result="effect2_dropShadow_3562_18728"/>
<feBlend in="SourceGraphic" in2="effect2_dropShadow_3562_18728" result="shape"/>
</filter>
<filter id="b" x="-103.27" y="136.7" width="631.71" height="320.57" color-interpolation-filters="sRGB" filterUnits="userSpaceOnUse">
<feFlood flood-opacity="0" result="BackgroundImageFix"/>
<feBlend in="SourceGraphic" in2="BackgroundImageFix" result="shape"/>
<feGaussianBlur result="effect1_foregroundBlur_3562_18728" stdDeviation="32.1354"/>
</filter>
<linearGradient id="a" x1="239.94" x2="239.94" y1="16.732" y2="19.663" gradientUnits="userSpaceOnUse">
<stop stop-color="#86BBE5" offset="0"/>
<stop stop-color="#1072BA" offset="1"/>
</linearGradient>
<clipPath id="g">
<rect transform="translate(94.295)" width="236.1" height="304.39" fill="#fff"/>
</clipPath>
<clipPath id="f">
<rect x="94.295" width="236.1" height="390.57" rx="18.122" fill="#fff"/>
</clipPath>
<clipPath id="e">
<rect transform="translate(89.596)" width="241.98" height="381.17" fill="#fff"/>
</clipPath>
<clipPath id="d">
<rect x="234.08" y="12.333" width="61.62" height="11.746" rx="5.8732" fill="#fff"/>
</clipPath>
</defs>
</svg>
