<svg width="48" height="48" viewBox="0 0 48 48" fill="none" xmlns="http://www.w3.org/2000/svg">
<path d="M24 45.5C12.14 45.5 2.5 35.86 2.5 24C2.5 12.14 12.14 2.5 24 2.5C35.86 2.5 45.5 12.14 45.5 24C45.5 35.86 35.86 45.5 24 45.5ZM24 5.5C13.8 5.5 5.5 13.8 5.5 24C5.5 34.2 13.8 42.5 24 42.5C34.2 42.5 42.5 34.2 42.5 24C42.5 13.8 34.2 5.5 24 5.5Z" fill="#292D32"/>
<path d="M24 33.5C18.76 33.5 14.5 29.24 14.5 24C14.5 18.76 18.76 14.5 24 14.5C29.24 14.5 33.5 18.76 33.5 24C33.5 29.24 29.24 33.5 24 33.5ZM24 17.5C20.42 17.5 17.5 20.42 17.5 24C17.5 27.58 20.42 30.5 24 30.5C27.58 30.5 30.5 27.58 30.5 24C30.5 20.42 27.58 17.5 24 17.5Z" fill="#292D32"/>
<path d="M42.3396 17.4999C42.2396 17.4999 42.1196 17.4799 42.0196 17.4599C36.1396 16.1799 30.1996 16.1799 24.3196 17.4599C23.4996 17.6399 22.7196 17.1199 22.5396 16.3199C22.3596 15.4999 22.8796 14.7199 23.6796 14.5399C29.9796 13.1599 36.3596 13.1599 42.6596 14.5399C43.4596 14.7199 43.9796 15.5199 43.7996 16.3199C43.6596 17.0199 43.0396 17.4999 42.3396 17.4999Z" fill="#292D32"/>
<path d="M17.0795 29.5001C16.6595 29.5001 16.2395 29.3201 15.9395 28.9801C11.7795 24.2001 8.61953 18.7401 6.51953 12.7401L7.89953 12.1201L9.31953 11.6401L9.35953 11.7601C11.3195 17.3801 14.2995 22.5201 18.2195 27.0201C18.7595 27.6401 18.6995 28.6001 18.0795 29.1401C17.7795 29.3801 17.4195 29.5001 17.0795 29.5001Z" fill="#292D32"/>
<path d="M21.7597 45.3799C21.3997 45.3799 21.0397 45.2599 20.7597 44.9999C20.1397 44.4399 20.0997 43.4999 20.6597 42.8799C24.6597 38.4799 27.6197 33.3799 29.4597 27.7199C29.7197 26.9399 30.5997 26.4199 31.3797 26.6799C32.1597 26.9399 32.6197 27.6999 32.3797 28.4799C30.3597 34.7199 27.1797 40.1999 22.8997 44.9199C22.5797 45.2199 22.1597 45.3799 21.7597 45.3799Z" fill="#292D32"/>
</svg>
