<svg width="15" height="16" viewBox="0 0 15 16" fill="none" xmlns="http://www.w3.org/2000/svg">
<path d="M6.625 4.625L11.125 7.375C11.3438 7.5 11.5 7.75 11.5 8.03125C11.5 8.28125 11.3438 8.53125 11.125 8.65625L6.625 11.4062C6.5 11.4688 6.375 11.5312 6.25 11.5312C5.8125 11.5312 5.5 11.1562 5.5 10.7812V5.28125C5.5 4.875 5.8125 4.53125 6.25 4.53125C6.375 4.53125 6.5 4.5625 6.625 4.625ZM7.5 0.5C11.625 0.5 15 3.875 15 8C15 12.1562 11.625 15.5 7.5 15.5C3.34375 15.5 0 12.1562 0 8C0 3.875 3.34375 0.5 7.5 0.5ZM7.5 14C10.7812 14 13.5 11.3125 13.5 8C13.5 4.71875 10.7812 2 7.5 2C4.1875 2 1.5 4.71875 1.5 8C1.5 11.3125 4.1875 14 7.5 14Z" fill="#F9FAFB"/>
</svg>
