<svg width="24" height="24" viewBox="0 0 24 24" fill="none" xmlns="http://www.w3.org/2000/svg">
<rect width="24" height="24" rx="4" fill="#066AFF" fill-opacity="0.1"/>
<path d="M19.5 12.5H18V14.5H19.5C19.75 14.5 20 14.75 20 15C20 15.2812 19.75 15.5 19.5 15.5H18V16C18 17.125 17.0938 18 16 18H15.5V19.5C15.5 19.7812 15.25 20 15 20C14.7188 20 14.5 19.7812 14.5 19.5V18H12.5V19.5C12.5 19.7812 12.25 20 12 20C11.7188 20 11.5 19.7812 11.5 19.5V18H9.5V19.5C9.5 19.7812 9.25 20 9 20C8.71875 20 8.5 19.7812 8.5 19.5V18H8C6.875 18 6 17.125 6 16V15.5H4.5C4.21875 15.5 4 15.2812 4 15C4 14.75 4.21875 14.5 4.5 14.5H6V12.5H4.5C4.21875 12.5 4 12.2812 4 12C4 11.75 4.21875 11.5 4.5 11.5H6V9.5H4.5C4.21875 9.5 4 9.28125 4 9C4 8.75 4.21875 8.5 4.5 8.5H6V8C6 6.90625 6.875 6 8 6H8.5V4.5C8.5 4.25 8.71875 4 9 4C9.25 4 9.5 4.25 9.5 4.5V6H11.5V4.5C11.5 4.25 11.7188 4 12 4C12.25 4 12.5 4.25 12.5 4.5V6H14.5V4.5C14.5 4.25 14.7188 4 15 4C15.25 4 15.5 4.25 15.5 4.5V6H16C17.0938 6 18 6.90625 18 8V8.5H19.5C19.75 8.5 20 8.75 20 9C20 9.28125 19.75 9.5 19.5 9.5H18V11.5H19.5C19.75 11.5 20 11.75 20 12C20 12.2812 19.75 12.5 19.5 12.5ZM12.4375 14.4688C12.6875 14.375 12.8125 14.0625 12.6875 13.8125L10.9375 9.8125C10.7812 9.4375 10.1875 9.4375 10.0312 9.8125L8.28125 13.8125C8.15625 14.0625 8.28125 14.375 8.53125 14.4688C8.78125 14.5938 9.09375 14.4688 9.1875 14.2188L9.5 13.5H11.4688L11.7812 14.2188C11.8438 14.4062 12.0312 14.5 12.25 14.5C12.3125 14.5 12.375 14.5 12.4375 14.4688ZM15 14V10C15 9.75 14.75 9.5 14.5 9.5C14.2188 9.5 14 9.75 14 10V14C14 14.2812 14.2188 14.5 14.5 14.5C14.75 14.5 15 14.2812 15 14ZM9.9375 12.5L10.5 11.25L11.0312 12.5H9.9375Z" fill="#066AFF"/>
</svg>
