<svg width="20" height="20" viewBox="0 0 20 20" fill="none" xmlns="http://www.w3.org/2000/svg">
<rect width="20" height="20" rx="10" fill="#4F4F4F"/>
<path fill-rule="evenodd" clip-rule="evenodd" d="M8.78298 8.58319V8.06313C8.60248 8.03758 8.42048 8.0243 8.23817 8.02344C6.00894 8.02344 4.19531 9.83738 4.19531 12.0666C4.19531 13.4341 4.87874 14.6446 5.9213 15.3766C5.22322 14.63 4.83512 13.646 4.83569 12.6239C4.83569 10.4264 6.5977 8.63449 8.78298 8.58319Z" fill="white"/>
<path fill-rule="evenodd" clip-rule="evenodd" d="M8.87847 14.4703C9.87308 14.4703 10.6845 13.6791 10.7214 12.693L10.7248 3.89056H12.3329C12.2986 3.70677 12.2812 3.52022 12.281 3.33325H10.0847L10.0811 12.136C10.0444 13.1218 9.23272 13.9127 8.23842 13.9127C7.93989 13.9128 7.64586 13.8401 7.38184 13.7008C7.55231 13.9386 7.77697 14.1325 8.03722 14.2663C8.29747 14.4001 8.58583 14.47 8.87847 14.4703ZM15.3369 6.87837V6.38914C14.7459 6.3897 14.1676 6.21778 13.6729 5.89444C14.1066 6.39384 14.6906 6.73906 15.3372 6.87837" fill="white"/>
<path fill-rule="evenodd" clip-rule="evenodd" d="M13.6723 5.89414C13.1875 5.33941 12.9205 4.6276 12.9208 3.89087H12.3324C12.4085 4.29807 12.5666 4.68558 12.7969 5.02992C13.0272 5.37425 13.325 5.66826 13.6723 5.89414ZM8.23791 10.2201C7.74841 10.2207 7.27913 10.4154 6.93299 10.7615C6.58688 11.1076 6.39218 11.5769 6.3916 12.0664C6.39193 12.4031 6.48427 12.7334 6.65866 13.0214C6.83305 13.3094 7.08282 13.5444 7.38102 13.7008C7.15396 13.3877 7.03171 13.0108 7.03168 12.624C7.03216 12.1345 7.22682 11.6651 7.57296 11.3189C7.9191 10.9727 8.38843 10.778 8.87799 10.7774C9.06824 10.7774 9.25054 10.8089 9.42277 10.8629V8.62053C9.24229 8.59497 9.06027 8.58169 8.87799 8.58083C8.84591 8.58083 8.81446 8.58267 8.78271 8.58328V10.3056C8.60652 10.2495 8.42279 10.2207 8.23791 10.2201Z" fill="#C6C6C6"/>
<path fill-rule="evenodd" clip-rule="evenodd" d="M15.3363 6.87824V8.58529C14.1972 8.58529 13.1421 8.22098 12.2803 7.6026V12.0663C12.2803 14.2955 10.467 16.1091 8.23779 16.1091C7.37632 16.1091 6.57746 15.8374 5.9209 15.3763C6.29838 15.7833 6.75585 16.108 7.26468 16.3301C7.77352 16.5521 8.32271 16.6666 8.87785 16.6664C11.1071 16.6664 12.9207 14.8528 12.9207 12.6239V8.16021C13.811 8.80037 14.8801 9.14418 15.9766 9.1429V6.94604C15.7568 6.94604 15.543 6.92221 15.3363 6.87793" fill="#C6C6C6"/>
<path fill-rule="evenodd" clip-rule="evenodd" d="M12.281 12.0664V7.60272C13.1712 8.24294 14.2404 8.58675 15.3369 8.58541V6.87836C14.6904 6.73892 14.1065 6.39358 13.6729 5.89414C13.3256 5.66826 13.0278 5.37425 12.7975 5.02992C12.5672 4.68558 12.4091 4.29807 12.3329 3.89087H10.7248L10.7214 12.6933C10.6845 13.6791 9.87311 14.4703 8.8785 14.4703C8.58586 14.47 8.2975 14.4 8.03725 14.2662C7.77703 14.1324 7.55236 13.9386 7.38186 13.7008C7.08361 13.5444 6.83375 13.3095 6.65931 13.0215C6.48486 12.7334 6.39248 12.4032 6.39214 12.0664C6.3927 11.5769 6.58739 11.1076 6.93353 10.7615C7.27964 10.4154 7.74895 10.2207 8.23845 10.2201C8.42839 10.2201 8.6107 10.2512 8.78322 10.3056V8.58328C6.59795 8.63458 4.83594 10.4265 4.83594 12.624C4.83594 13.6867 5.24881 14.6542 5.92155 15.3767C6.59975 15.8541 7.40906 16.11 8.23845 16.1093C10.4677 16.1093 12.281 14.2956 12.281 12.0664Z" fill="white"/>
</svg>
