<svg width="52" height="51" viewBox="0 0 52 51" fill="none" xmlns="http://www.w3.org/2000/svg">
<path d="M26.1023 4.18882L26.2285 4.19177C26.9037 4.22577 27.5601 4.41336 28.1435 4.73812L43.6056 13.3575L43.6057 13.3575C44.2542 13.7189 44.7884 14.2364 45.1581 14.8543C45.5275 15.472 45.7205 16.1698 45.7206 16.878C45.7206 16.878 45.7206 16.878 45.7206 16.8781V34.1176V34.1178C45.7207 34.8262 45.5278 35.5243 45.1584 36.1422C44.7888 36.7604 44.2544 37.2781 43.6057 37.6396L43.6056 37.6397L28.1421 46.2595C27.4934 46.6211 26.7549 46.8127 26.0013 46.8127C25.2478 46.8127 24.5093 46.6211 23.8606 46.2595L8.3971 37.6397C7.74862 37.2782 7.21448 36.7607 6.84494 36.1428C6.47557 35.5251 6.28261 34.8273 6.28259 34.1192V16.8796C6.28259 16.8796 6.28259 16.8796 6.28259 16.8796C6.28262 16.1714 6.47558 15.4736 6.84494 14.8559C7.21448 14.238 7.74862 13.7205 8.3971 13.3591L8.39711 13.3591L23.8597 4.73969C23.8597 4.73968 23.8597 4.73966 23.8597 4.73965C24.5384 4.36186 25.3144 4.17038 26.1023 4.18882Z" stroke="black" stroke-width="2"/>
<path d="M26.1257 3.18889C25.1616 3.16713 24.2099 3.40191 23.3748 3.8675L7.90973 12.4868C7.1107 12.9323 6.44724 13.5731 5.98607 14.3447C5.5249 15.1163 5.28228 15.9915 5.28259 16.8824V18.4761C5.28228 17.5853 5.5249 16.7101 5.98607 15.9385C6.44724 15.1669 7.1107 14.5261 7.90973 14.0806L23.3748 5.46125C24.2099 4.99566 25.1616 4.76088 26.1257 4.78264C27.0054 4.803 27.8658 5.03635 28.6278 5.46125L44.0922 14.0806C44.8914 14.526 45.555 15.1667 46.0164 15.9383C46.4777 16.7099 46.7205 17.5852 46.7202 18.4761V16.8824C46.7206 15.9916 46.4781 15.1164 46.017 14.3448C45.556 13.5732 44.8927 12.9324 44.0938 12.4868L28.628 3.8675C27.8659 3.4426 27.0054 3.20925 26.1257 3.18889Z" fill="black"/>
<path d="M5.28268 34.1173V35.7111C5.28298 36.6014 5.52589 37.4759 5.98703 38.2469C6.44817 39.0178 7.1113 39.6581 7.90982 40.1033L23.3741 48.7258C24.1729 49.171 25.079 49.4054 26.0014 49.4054C26.9237 49.4054 27.8298 49.171 28.6286 48.7258L44.0929 40.1033C44.8913 39.658 45.5543 39.0177 46.0154 38.2467C46.4764 37.4757 46.7192 36.6012 46.7194 35.7109V34.1172C46.7191 35.0075 46.4762 35.882 46.015 36.653C45.5539 37.4239 44.8908 38.0642 44.0922 38.5094L28.6279 47.1319C27.8291 47.5771 26.923 47.8115 26.0007 47.8115C25.0784 47.8115 24.1723 47.5771 23.3735 47.1319L7.90839 38.5081C7.11008 38.063 6.44709 37.423 5.98597 36.6523C5.52484 35.8816 5.28324 35.0074 5.28268 34.1173Z" fill="black"/>
<path d="M18.0732 15.9805H33.9267L18.0732 34.8605H33.9267" stroke="black" stroke-width="4.32366" stroke-linecap="square" stroke-linejoin="round"/>
</svg>
